<svg width="592" height="480" viewBox="0 0 592 480" fill="none" xmlns="http://www.w3.org/2000/svg">
<rect width="592" height="480" fill="#E1E1FE"/>
<path d="M191.658 366.893C252.138 397.81 350.194 397.81 410.667 366.893C471.14 335.976 471.147 285.835 410.667 254.918C350.187 224.002 252.138 223.958 191.658 254.918C131.178 285.878 131.178 335.969 191.658 366.893Z" fill="#F5F5F5"/>
<path d="M225.13 366C224.21 366.012 223.303 365.786 222.495 365.345L199.282 351.946C198.764 351.691 198.328 351.296 198.023 350.806C197.718 350.316 197.556 349.751 197.556 349.174C197.556 348.596 197.718 348.031 198.023 347.541C198.328 347.051 198.764 346.656 199.282 346.402L264.687 308.659L251.922 301.286C250.064 300.214 250.222 298.709 250.316 298.277C250.41 297.845 250.878 296.405 253.016 296.189L323.137 289.039H323.612C324.374 289.032 325.126 289.217 325.797 289.579C326.468 289.94 327.036 290.465 327.45 291.106C327.618 291.369 327.726 291.666 327.769 291.975C327.811 292.285 327.786 292.6 327.694 292.898L315.44 332.88C315.237 333.618 314.797 334.269 314.189 334.733C313.58 335.198 312.836 335.449 312.07 335.45C311.418 335.447 310.778 335.273 310.213 334.946L295.294 326.306L227.773 365.28C226.97 365.747 226.059 365.995 225.13 366Z" fill="#E0E0E0"/>
<path d="M406.455 337.402C425.335 337.402 440.641 329.082 440.641 318.818C440.641 308.555 425.335 300.235 406.455 300.235C387.575 300.235 372.27 308.555 372.27 318.818C372.27 329.082 387.575 337.402 406.455 337.402Z" fill="#E0E0E0"/>
<path d="M416.96 299.969C416.96 299.969 417.262 292.934 420.351 287.268C423.44 281.602 427.976 277.908 432.404 277.224C436.832 276.54 440.713 280.399 436.148 283.546C431.583 286.692 423.325 290.162 420.171 300.962L416.96 299.969Z" fill="#344CA3"/>
<path opacity="0.15" d="M416.96 299.969C416.96 299.969 417.262 292.934 420.351 287.268C423.44 281.602 427.976 277.908 432.404 277.224C436.832 276.54 440.713 280.399 436.148 283.546C431.583 286.692 423.325 290.162 420.171 300.962L416.96 299.969Z" fill="black"/>
<path d="M418.134 298.068H418.083C418.053 298.058 418.026 298.043 418.002 298.022C417.978 298.002 417.958 297.977 417.944 297.948C417.93 297.92 417.922 297.89 417.92 297.858C417.918 297.827 417.922 297.795 417.932 297.766C421.813 285.864 430.417 280.406 434.427 279.182C434.457 279.173 434.488 279.169 434.52 279.171C434.551 279.174 434.581 279.183 434.609 279.198C434.637 279.213 434.661 279.233 434.68 279.258C434.7 279.282 434.714 279.311 434.722 279.341C434.74 279.401 434.734 279.466 434.704 279.521C434.674 279.576 434.624 279.618 434.564 279.636C430.64 280.838 422.209 286.202 418.386 297.917C418.365 297.965 418.329 298.006 418.284 298.033C418.239 298.06 418.186 298.072 418.134 298.068Z" fill="white"/>
<path d="M442.038 296.513C441.677 297.514 440.662 298.09 439.705 298.55C438.747 299.011 437.718 299.515 437.25 300.466C436.314 302.388 438.25 304.858 437.25 306.737C437.004 307.109 436.687 307.429 436.316 307.676C435.945 307.924 435.528 308.094 435.09 308.177C434.37 308.364 433.65 308.414 432.886 308.53C432.534 308.548 432.18 308.548 431.828 308.53C430.786 308.368 429.719 308.558 428.797 309.07C427.357 309.998 427.069 311.878 426.277 313.39C425.785 314.271 425.108 315.036 424.293 315.632C423.478 316.227 422.543 316.639 421.554 316.838C420.715 317.069 419.829 317.069 418.99 316.838L418.839 316.759C418.74 316.669 418.646 316.573 418.558 316.471V316.428C418.227 315.492 418.558 314.462 418.558 313.476C418.562 313.416 418.562 313.356 418.558 313.296C418.436 312.151 418.328 311.014 418.22 309.869C418.018 307.757 417.848 305.647 417.709 303.54C417.63 302.165 417.356 300.66 417.846 299.342C418.386 297.902 420.006 297.737 420.488 296.304C420.69 295.728 420.776 295.123 420.97 294.547C421.269 293.707 421.79 292.964 422.479 292.398C423.168 291.833 423.998 291.465 424.88 291.336C427.659 290.99 430.323 293.078 433.088 292.675C433.801 292.527 434.505 292.339 435.198 292.114C437.422 291.538 440.079 291.991 441.483 293.813C441.794 294.181 442.007 294.621 442.104 295.092C442.201 295.564 442.178 296.052 442.038 296.513Z" fill="#344CA3"/>
<g opacity="0.07">
<path opacity="0.07" d="M442.038 296.513C441.677 297.514 440.662 298.09 439.705 298.55C438.747 299.011 437.718 299.515 437.25 300.466C436.314 302.388 438.25 304.858 437.25 306.737C437.004 307.109 436.687 307.429 436.316 307.676C435.945 307.924 435.528 308.094 435.09 308.177C434.368 308.363 433.63 308.481 432.886 308.53C432.534 308.548 432.18 308.548 431.828 308.53C430.786 308.368 429.719 308.558 428.797 309.07C427.357 309.998 427.069 311.878 426.277 313.39C425.785 314.271 425.108 315.036 424.293 315.632C423.478 316.227 422.543 316.639 421.554 316.838C420.715 317.069 419.829 317.069 418.99 316.838L418.839 316.759C418.795 316.739 418.756 316.709 418.724 316.673C418.657 316.616 418.601 316.548 418.558 316.471V316.428C418.126 315.665 418.558 314.333 418.558 313.476C418.562 313.416 418.562 313.356 418.558 313.296C418.436 312.151 418.328 311.014 418.22 309.869C418.018 307.757 417.848 305.647 417.709 303.54C417.63 302.165 417.356 300.66 417.846 299.342C418.386 297.902 420.006 297.737 420.488 296.304C420.69 295.728 420.776 295.123 420.97 294.547C421.269 293.707 421.79 292.964 422.479 292.398C423.168 291.833 423.998 291.465 424.88 291.336C427.659 290.99 430.323 293.078 433.088 292.675C433.801 292.527 434.505 292.339 435.198 292.114C437.422 291.538 440.079 291.991 441.483 293.813C441.794 294.181 442.007 294.621 442.104 295.092C442.201 295.564 442.178 296.052 442.038 296.513Z" fill="#263238"/>
</g>
<path d="M417.961 312.05C417.899 312.037 417.846 312 417.811 311.947C417.776 311.895 417.763 311.831 417.774 311.77C420.56 297.046 435.68 293.885 439.28 293.892C439.343 293.892 439.403 293.917 439.448 293.962C439.492 294.006 439.518 294.067 439.518 294.13C439.518 294.193 439.492 294.253 439.448 294.298C439.403 294.342 439.343 294.367 439.28 294.367C435.781 294.367 421.028 297.456 418.256 311.863C418.251 311.896 418.239 311.927 418.221 311.955C418.203 311.983 418.179 312.007 418.151 312.025C418.123 312.042 418.092 312.054 418.059 312.058C418.026 312.063 417.992 312.06 417.961 312.05Z" fill="white"/>
<path d="M434.362 303.54C434.315 303.531 434.271 303.512 434.233 303.482C432.738 302.367 431.016 301.596 429.189 301.222C427.362 300.849 425.475 300.883 423.663 301.322C423.601 301.333 423.538 301.32 423.485 301.285C423.433 301.25 423.396 301.196 423.382 301.135C423.37 301.074 423.381 301.01 423.415 300.958C423.449 300.905 423.502 300.868 423.562 300.854C425.45 300.405 427.413 300.378 429.313 300.775C431.212 301.172 433 301.983 434.55 303.151C434.572 303.173 434.59 303.2 434.602 303.229C434.614 303.258 434.62 303.289 434.62 303.32C434.62 303.352 434.614 303.383 434.602 303.412C434.59 303.441 434.572 303.467 434.55 303.49C434.496 303.53 434.429 303.548 434.362 303.54Z" fill="white"/>
<path d="M226.254 106.872L219.867 110.558C219.898 110.279 219.915 109.997 219.918 109.716V107.866C219.918 104.575 217.606 103.236 214.755 104.885C213.531 105.641 212.483 106.65 211.681 107.844C211.213 103.704 207.966 102.163 204.027 104.438C199.758 106.901 196.302 112.891 196.302 117.816V120.581C196.274 121.685 196.498 122.78 196.957 123.785L191.65 126.845C190.814 127.387 190.117 128.119 189.617 128.981C189.116 129.843 188.826 130.81 188.77 131.806C188.77 133.634 190.052 134.369 191.65 133.462L226.254 113.482C227.09 112.941 227.787 112.211 228.287 111.35C228.788 110.489 229.078 109.522 229.134 108.528C229.112 106.699 227.83 105.958 226.254 106.872Z" fill="#EBEBEB"/>
<path d="M252.8 123.317L248.12 126.024C248.143 125.818 248.155 125.612 248.156 125.405V124.08C248.156 121.668 246.464 120.689 244.376 121.92C243.476 122.469 242.705 123.206 242.115 124.08C241.777 121.049 239.394 119.918 236.506 121.589C234.859 122.662 233.488 124.109 232.504 125.811C231.521 127.514 230.953 129.425 230.847 131.388V133.418C230.827 134.227 230.99 135.029 231.322 135.766L227.434 138.012C226.829 138.407 226.324 138.938 225.96 139.564C225.596 140.189 225.384 140.89 225.339 141.612C225.339 142.951 226.275 143.491 227.434 142.822L252.8 128.17C253.411 127.771 253.918 127.234 254.283 126.602C254.647 125.97 254.856 125.262 254.895 124.534C254.874 123.194 253.938 122.64 252.8 123.317Z" fill="#EBEBEB"/>
<path d="M326.046 282.041V286.8C325.995 288.577 325.734 290.341 325.268 292.056L313.669 329.978C313.543 330.445 313.264 330.856 312.877 331.145C312.54 331.39 312.137 331.528 311.721 331.54C311.304 331.551 310.894 331.436 310.544 331.21L295.33 322.426L227.463 361.608C226.746 361.99 225.943 362.183 225.13 362.17C224.326 362.187 223.531 361.998 222.819 361.622L201.147 349.102C200.465 348.66 199.896 348.063 199.488 347.36C199.08 346.657 198.845 345.867 198.8 345.055V340.296C198.838 339.479 199.086 338.685 199.52 337.992C199.917 337.277 200.489 336.675 201.183 336.242L260.274 302.136L253.837 298.421C253.155 297.979 252.588 297.382 252.181 296.678C251.774 295.975 251.54 295.186 251.497 294.374V289.68C251.502 289.276 251.587 288.877 251.748 288.506C251.908 288.135 252.141 287.8 252.433 287.52C252.899 287.053 253.512 286.761 254.168 286.692L323.36 279.6C323.801 279.548 324.248 279.62 324.651 279.807C325.054 279.994 325.397 280.288 325.642 280.658C325.912 281.069 326.052 281.55 326.046 282.041Z" fill="#344CA3"/>
<path opacity="0.1" d="M225.13 352.788V362.148C224.326 362.165 223.531 361.977 222.819 361.601L201.147 349.08C200.465 348.638 199.896 348.042 199.488 347.338C199.08 346.635 198.845 345.845 198.8 345.034V340.296C198.838 339.479 199.086 338.685 199.52 337.992L225.13 352.788Z" fill="black"/>
<path opacity="0.1" d="M269.007 297.074L260.238 302.114L253.801 298.399C253.119 297.955 252.552 297.357 252.146 296.652C251.739 295.948 251.505 295.158 251.461 294.346V289.68C251.464 289.276 251.549 288.876 251.709 288.505C251.87 288.134 252.104 287.799 252.397 287.52L269.007 297.074Z" fill="black"/>
<path opacity="0.1" d="M312.877 322.404V331.116C312.541 331.363 312.138 331.502 311.721 331.514C311.304 331.525 310.893 331.409 310.544 331.181L295.33 322.404V312.274L312.877 322.404Z" fill="black"/>
<path opacity="0.2" d="M295.33 312.274V322.404L227.463 361.579C226.746 361.961 225.943 362.154 225.13 362.141V352.781L295.33 312.274Z" fill="black"/>
<path opacity="0.2" d="M326.046 282.041V286.8C325.995 288.577 325.734 290.341 325.268 292.056L313.669 329.978C313.543 330.445 313.264 330.856 312.877 331.145V322.397L325.635 280.637C325.912 281.052 326.055 281.542 326.046 282.041Z" fill="black"/>
<path d="M385.921 138.026L365.343 126.146C365.145 122.505 364.355 118.92 363.003 115.534C367.103 114.963 371.278 115.686 374.948 117.6L375.402 117.866C381.313 121.279 385.194 128.227 385.921 138.026Z" fill="#344CA3"/>
<path opacity="0.3" d="M385.921 138.026L365.343 126.146C365.145 122.505 364.355 118.92 363.003 115.534C367.103 114.963 371.278 115.686 374.948 117.6L375.402 117.866C381.313 121.279 385.194 128.227 385.921 138.026Z" fill="black"/>
<path d="M382.911 141.101C382.682 141.046 382.44 141.071 382.227 141.173L374.523 144.643C374.402 144.702 374.269 144.733 374.134 144.734C373.999 144.735 373.866 144.707 373.743 144.65C373.621 144.594 373.512 144.511 373.426 144.408C373.339 144.304 373.276 144.183 373.242 144.053C372.939 143.081 367.662 141.958 367.23 141.122L370.16 133.771L382.911 141.101Z" fill="#AEC4CD"/>
<path d="M370.196 133.793C370.093 133.739 369.978 133.71 369.861 133.71C369.745 133.71 369.63 133.739 369.526 133.793L363.838 120.631C363.964 120.368 363.988 120.067 363.904 119.788C363.82 119.508 363.635 119.27 363.385 119.119L357.812 115.908C357.559 115.763 357.26 115.719 356.976 115.784C356.692 115.85 356.443 116.02 356.278 116.261L349.878 125.887C349.679 126.143 349.424 126.352 349.134 126.496C348.844 126.641 348.524 126.718 348.2 126.722C347.455 126.703 346.709 126.737 345.968 126.823V119.76L341.691 117.29C341.576 117.237 341.449 117.214 341.322 117.226C341.196 117.237 341.075 117.282 340.971 117.355L332.331 122.352C332.05 122.534 331.81 122.774 331.629 123.056C331.448 123.338 331.329 123.655 331.28 123.986L330.416 133.613C330.318 134.294 330.002 134.926 329.516 135.413C327.801 137 326.194 138.701 324.706 140.503C324.497 140.734 324.226 140.902 323.926 140.987C323.625 141.073 323.307 141.072 323.007 140.986L317.456 139.042C317.168 138.952 316.858 138.96 316.575 139.066C316.292 139.171 316.052 139.368 315.894 139.625L309.529 150.641C309.387 150.907 309.338 151.212 309.389 151.51C309.44 151.807 309.588 152.078 309.81 152.282L314.266 156.127C314.494 156.342 314.655 156.618 314.731 156.921C314.808 157.225 314.796 157.544 314.698 157.841C313.879 160.027 313.21 162.266 312.697 164.544C312.519 165.209 312.13 165.797 311.588 166.222L303.668 171.787C303.408 171.993 303.194 172.251 303.042 172.545C302.889 172.839 302.801 173.163 302.782 173.494V183.487C302.774 183.612 302.798 183.736 302.852 183.848C302.907 183.961 302.989 184.057 303.092 184.128L313.107 189.888L309.457 197.254C309.33 197.516 309.306 197.816 309.39 198.095C309.474 198.373 309.66 198.61 309.91 198.758L323.533 206.678C323.786 206.823 324.084 206.867 324.369 206.802C324.653 206.737 324.902 206.567 325.066 206.326L331.258 199.99C331.26 200.109 331.291 200.226 331.349 200.33C331.406 200.434 331.489 200.523 331.59 200.587L344.276 207.91L344.614 197.974C344.614 197.974 341.936 194.51 341.986 193.913L355.818 178.85C356.105 178.942 356.415 178.935 356.698 178.831C356.981 178.727 357.221 178.531 357.38 178.274L363.745 167.258C363.886 166.992 363.936 166.687 363.885 166.39C363.834 166.092 363.686 165.821 363.464 165.617L369.591 146.105C369.851 145.901 370.063 145.644 370.215 145.351C370.367 145.057 370.453 144.735 370.47 144.406L370.196 133.793ZM336.666 175.834C332.95 177.994 329.883 178.433 327.651 177.396C325.03 176.179 346.278 139.762 348.531 141.749C350.338 143.354 351.318 146.335 351.318 150.504C351.289 159.835 344.737 171.168 336.666 175.834Z" fill="#325161"/>
<path d="M372.32 125.52L370.599 128.998L365.07 135.377L358.554 131.611L349.424 126.334C349.608 126.219 349.765 126.067 349.885 125.887L356.286 116.268C356.448 116.03 356.694 115.86 356.975 115.792C357.255 115.724 357.551 115.763 357.805 115.901L363.392 119.126L371.866 124.015C372.116 124.164 372.301 124.401 372.385 124.68C372.469 124.958 372.445 125.258 372.32 125.52Z" fill="#AEC4CD"/>
<path d="M312.193 165.61C312.034 165.845 311.837 166.052 311.61 166.222L303.69 171.787C303.468 171.961 303.282 172.176 303.142 172.421L316.441 180.11L326.96 174.142L312.193 165.61Z" fill="#AEC4CD"/>
<path d="M316.952 138.984C316.741 139.002 316.537 139.07 316.357 139.181C316.177 139.292 316.026 139.444 315.915 139.625L309.55 150.641C309.41 150.9 309.359 151.199 309.406 151.49L323.36 159.554L332.072 147.768L316.952 138.984Z" fill="#AEC4CD"/>
<path d="M354.414 124.656V127.824L346.71 132.274L331.446 123.454C331.624 123.01 331.936 122.632 332.338 122.374L340.978 117.377C341.109 117.297 341.258 117.253 341.41 117.247C341.503 117.245 341.595 117.268 341.677 117.312L345.846 119.71L345.954 119.774L351.714 123.101L354.414 124.656Z" fill="#AEC4CD"/>
<path d="M383.228 151.75V141.756C383.246 141.634 383.229 141.51 383.178 141.398C383.127 141.286 383.045 141.191 382.942 141.124C382.839 141.057 382.719 141.022 382.596 141.021C382.473 141.021 382.352 141.056 382.249 141.122L374.545 144.593C374.423 144.651 374.289 144.682 374.154 144.683C374.019 144.684 373.885 144.654 373.763 144.597C373.64 144.54 373.532 144.456 373.445 144.352C373.359 144.248 373.297 144.126 373.263 143.995C372.843 142.659 372.265 141.378 371.542 140.179C371.385 139.897 371.293 139.583 371.273 139.26C371.253 138.937 371.306 138.614 371.427 138.314L376.561 127.961C376.687 127.698 376.71 127.397 376.626 127.117C376.542 126.838 376.357 126.599 376.107 126.449L370.534 123.23C370.28 123.088 369.982 123.046 369.698 123.112C369.414 123.179 369.165 123.35 369.001 123.59L362.6 133.217C362.403 133.475 362.149 133.683 361.858 133.827C361.567 133.971 361.247 134.045 360.922 134.045C359.523 134.021 358.126 134.164 356.761 134.47C356.63 134.506 356.493 134.513 356.36 134.491C356.226 134.468 356.099 134.416 355.988 134.338C355.877 134.26 355.785 134.158 355.718 134.04C355.651 133.922 355.611 133.791 355.602 133.656L354.759 125.246C354.763 125.124 354.732 125.002 354.669 124.897C354.607 124.791 354.515 124.705 354.406 124.649C354.297 124.593 354.174 124.57 354.051 124.581C353.929 124.593 353.812 124.638 353.715 124.714L345.075 129.71C344.799 129.891 344.564 130.128 344.387 130.406C344.209 130.684 344.093 130.997 344.046 131.323L343.174 140.957C343.076 141.638 342.761 142.27 342.274 142.757C340.559 144.344 338.952 146.045 337.465 147.847C337.255 148.078 336.985 148.246 336.684 148.331C336.384 148.417 336.066 148.416 335.766 148.33L330.2 146.4C329.913 146.309 329.603 146.317 329.32 146.421C329.038 146.525 328.797 146.721 328.638 146.976L322.273 157.999C322.131 158.265 322.082 158.571 322.133 158.868C322.184 159.165 322.332 159.437 322.554 159.641L327.01 163.486C327.238 163.701 327.399 163.976 327.475 164.28C327.552 164.583 327.54 164.902 327.442 165.199C326.623 167.385 325.954 169.625 325.441 171.902C325.263 172.567 324.874 173.156 324.332 173.58L316.412 179.146C316.152 179.351 315.939 179.609 315.786 179.904C315.633 180.198 315.545 180.521 315.526 180.852V190.846C315.51 190.967 315.529 191.091 315.581 191.203C315.633 191.314 315.715 191.409 315.819 191.475C315.922 191.542 316.042 191.577 316.165 191.578C316.288 191.579 316.409 191.544 316.513 191.479L324.217 188.009C324.338 187.95 324.471 187.919 324.606 187.918C324.741 187.917 324.874 187.945 324.997 188.002C325.119 188.058 325.228 188.141 325.315 188.244C325.401 188.348 325.464 188.469 325.498 188.599C325.914 189.939 326.492 191.223 327.219 192.422C327.377 192.705 327.469 193.019 327.489 193.342C327.509 193.664 327.456 193.988 327.334 194.287L322.201 204.641C322.068 204.903 322.04 205.205 322.121 205.487C322.203 205.769 322.388 206.009 322.64 206.16L328.213 209.378C328.467 209.523 328.766 209.566 329.05 209.499C329.334 209.432 329.583 209.261 329.746 209.018L336.147 199.399C336.345 199.144 336.598 198.936 336.887 198.792C337.177 198.647 337.494 198.569 337.818 198.564C339.219 198.595 340.62 198.452 341.986 198.139C342.117 198.104 342.253 198.098 342.387 198.121C342.52 198.144 342.646 198.197 342.757 198.274C342.867 198.352 342.959 198.453 343.027 198.57C343.094 198.688 343.134 198.818 343.146 198.953L343.988 207.362C343.983 207.486 344.013 207.608 344.075 207.715C344.137 207.822 344.228 207.909 344.338 207.966C344.447 208.022 344.571 208.046 344.694 208.035C344.817 208.024 344.934 207.978 345.032 207.902L353.672 202.906C353.949 202.724 354.184 202.486 354.362 202.207C354.539 201.927 354.655 201.613 354.702 201.286L355.573 191.659C355.671 190.978 355.986 190.346 356.473 189.859C358.186 188.272 359.79 186.571 361.275 184.769C361.485 184.536 361.757 184.367 362.059 184.281C362.361 184.196 362.681 184.198 362.982 184.286L368.533 186.23C368.821 186.319 369.131 186.31 369.413 186.204C369.696 186.099 369.935 185.903 370.095 185.647L376.46 174.624C376.601 174.359 376.65 174.055 376.599 173.759C376.548 173.463 376.401 173.192 376.179 172.99L371.722 169.145C371.495 168.93 371.334 168.654 371.257 168.351C371.181 168.047 371.192 167.728 371.29 167.431C372.104 165.241 372.773 162.999 373.292 160.721C373.474 160.058 373.862 159.47 374.401 159.043L382.321 153.478C382.589 153.274 382.81 153.013 382.966 152.714C383.123 152.416 383.212 152.086 383.228 151.75ZM349.388 183.178C341.31 187.836 334.765 184.056 334.765 174.732C334.765 165.408 341.31 154.068 349.388 149.41C357.466 144.751 364.011 148.524 364.011 157.848C364.011 167.172 357.459 178.512 349.388 183.178Z" fill="#8A9BA2"/>
<path d="M356.732 155.674L352.88 153.456H352.844C351.138 152.491 348.79 152.635 346.198 154.133C340.986 157.142 336.752 164.472 336.752 170.498C336.752 173.501 337.81 175.618 339.51 176.604L343.009 178.606L343.844 177.209C344.794 176.994 345.707 176.637 346.551 176.15C351.771 173.141 355.998 165.811 356.005 159.785C356.003 158.971 355.902 158.161 355.702 157.373L356.732 155.674Z" fill="#344CA3"/>
<path opacity="0.1" d="M336.752 170.484C336.752 173.494 337.81 175.603 339.51 176.59L343.009 178.591L343.844 177.194C344.794 176.978 345.706 176.621 346.551 176.136C349.55 174.257 351.985 171.603 353.6 168.454L339.92 160.534C337.986 163.504 336.891 166.942 336.752 170.484Z" fill="black"/>
<path opacity="0.4" d="M356.732 155.674L352.88 153.456H352.837C351.13 152.491 348.783 152.635 346.191 154.133C343.601 155.734 341.439 157.94 339.891 160.562L353.571 168.482C355.06 165.839 355.89 162.875 355.99 159.842C355.989 159.029 355.887 158.219 355.688 157.43L356.732 155.674Z" fill="white"/>
<path d="M349.856 156.214C344.636 159.223 340.41 166.553 340.41 172.579C340.41 178.606 344.636 181.046 349.856 178.03C355.076 175.013 359.302 167.69 359.302 161.664C359.302 155.638 355.076 153.197 349.856 156.214Z" fill="#344CA3"/>
<path d="M352.023 160.541C352.047 160.517 352.08 160.504 352.113 160.504C352.147 160.504 352.179 160.517 352.203 160.541C352.231 160.572 352.251 160.609 352.264 160.648C352.276 160.688 352.28 160.73 352.275 160.771V162.298C352.273 162.409 352.251 162.518 352.21 162.622C352.175 162.72 352.134 162.816 352.088 162.91L350.958 165.314C351.164 165.262 351.38 165.261 351.587 165.311C351.794 165.362 351.986 165.461 352.146 165.602C352.323 165.814 352.456 166.06 352.535 166.325C352.614 166.59 352.639 166.868 352.606 167.143C352.633 168.151 352.384 169.147 351.886 170.023C351.395 170.856 350.692 171.544 349.849 172.018C349.488 172.247 349.083 172.399 348.661 172.464C348.36 172.507 348.054 172.456 347.782 172.32C347.541 172.184 347.349 171.975 347.235 171.722C347.101 171.431 347.032 171.114 347.034 170.794C347.035 170.703 347.057 170.614 347.098 170.534C347.124 170.461 347.175 170.4 347.242 170.362L348.423 169.678C348.553 169.606 348.654 169.591 348.718 169.642L348.949 169.807C349.046 169.869 349.158 169.904 349.273 169.908C349.48 169.901 349.68 169.834 349.849 169.714C350.132 169.548 350.378 169.325 350.569 169.058C350.767 168.798 350.872 168.478 350.864 168.151C350.864 167.813 350.77 167.626 350.569 167.59C350.313 167.567 350.058 167.636 349.849 167.784L349.071 168.238C349.047 168.259 349.017 168.271 348.985 168.271C348.953 168.271 348.922 168.259 348.898 168.238C348.87 168.206 348.849 168.17 348.835 168.13C348.822 168.091 348.816 168.049 348.819 168.007V166.769C348.82 166.658 348.842 166.548 348.884 166.445C348.927 166.33 348.978 166.229 349.021 166.135L350.007 164.026L347.566 165.43C347.543 165.451 347.512 165.463 347.48 165.463C347.448 165.463 347.417 165.451 347.394 165.43C347.366 165.398 347.345 165.362 347.331 165.322C347.317 165.283 347.312 165.241 347.314 165.199V163.68C347.316 163.57 347.343 163.461 347.394 163.363C347.427 163.273 347.487 163.195 347.566 163.14L352.023 160.541Z" fill="#37474F"/>
<path d="M355.256 105.965L354.91 105.763C348.286 101.832 339.07 102.336 328.89 108.211C308.73 119.854 292.335 148.207 292.335 171.528C292.335 194.849 275.962 223.217 255.774 234.888C251.645 237.39 247.053 239.028 242.274 239.705C243.785 243.644 246.508 247.002 250.05 249.295L250.41 249.511C257.034 253.414 266.25 252.888 276.38 247.027C296.54 235.37 312.934 207.01 312.934 183.667C312.934 160.325 329.3 132 349.496 120.35C353.625 117.845 358.221 116.207 363.003 115.534C367.103 114.963 371.278 115.686 374.948 117.6L355.256 105.965Z" fill="#344CA3"/>
<path d="M291.025 196.26L308.809 192.271H308.773L301.17 187.872L294.114 183.79C293.964 183.698 293.792 183.649 293.617 183.646L287.374 183.293C287.238 183.298 287.102 183.275 286.975 183.226C286.847 183.177 286.731 183.103 286.633 183.008C286.535 182.914 286.457 182.8 286.404 182.675C286.35 182.549 286.323 182.414 286.323 182.278C286.503 180.275 286.503 178.261 286.323 176.258C286.347 175.58 286.601 174.93 287.043 174.415L297.03 173.602C297.454 173.083 305.626 165.199 305.626 165.199H305.583L290.91 156.696C290.822 156.654 290.726 156.635 290.629 156.638C286.402 154.198 278.994 149.906 278.821 149.798C278.601 149.678 278.349 149.63 278.101 149.662L270.822 150.382C270.485 150.419 270.163 150.54 269.885 150.734C269.607 150.927 269.382 151.188 269.23 151.49L265.285 162.074C264.936 162.748 264.378 163.289 263.694 163.615C262.923 163.975 262.153 164.386 261.375 164.832L253.736 160.411C253.434 160.21 252.951 160.339 252.555 160.757L244.563 169.195C244.332 169.421 244.156 169.697 244.049 170.002C243.942 170.306 243.906 170.631 243.944 170.952L246.169 178.483C246.268 179.118 246.121 179.767 245.758 180.298C244.407 182.35 243.18 184.483 242.086 186.684C241.697 187.323 241.075 187.785 240.351 187.973L233.511 189.622C233.171 189.701 232.853 189.859 232.585 190.083C232.316 190.307 232.103 190.59 231.963 190.91L228.522 202.495C228.465 202.644 228.46 202.808 228.507 202.961C228.554 203.113 228.65 203.246 228.781 203.338C228.932 203.46 236.528 207.83 236.528 207.83C236.528 208.889 236.528 209.926 236.658 210.934C236.648 211.607 236.409 212.257 235.981 212.777L229.004 221.215C228.798 221.448 228.652 221.728 228.579 222.031C228.506 222.333 228.509 222.649 228.586 222.95L231.898 230.273C231.942 230.372 232.015 230.455 232.107 230.51L246.802 239.014C246.822 238.996 246.836 238.974 246.846 238.949L247.062 239.078L258.877 245.911C259.078 245.364 265.076 220.517 265.357 220.913L269.086 226.608C269.119 226.656 269.158 226.7 269.202 226.738L276.308 230.863L283.976 235.306L278.432 218.026C283.328 219.66 294.495 198.6 291.025 196.26ZM247.969 207.823L274.99 179.304C275.783 181.179 276.163 183.202 276.106 185.237C276.698 184.887 277.311 184.574 277.942 184.301C278 184.93 278.029 185.592 278.029 186.288C278.029 195.648 271.484 206.952 263.406 211.618C262.815 211.956 262.232 212.258 261.678 212.518C261.591 211.815 261.553 211.108 261.562 210.401C255.795 213.77 250.316 213 247.969 207.823Z" fill="#325161"/>
<path d="M246.788 238.985L246.068 232.174L228.529 222.05C228.434 222.331 228.434 222.634 228.529 222.914L231.841 230.237C231.884 230.336 231.957 230.419 232.05 230.474H232.086L246.788 238.985Z" fill="#AEC4CD"/>
<path d="M249.006 200.098L232.179 190.421C232.069 190.552 231.986 190.704 231.934 190.867L228.493 202.459C228.437 202.608 228.431 202.772 228.478 202.925C228.525 203.077 228.622 203.21 228.752 203.302L228.874 203.381L236.456 207.766H236.499L243.548 211.848L249.006 200.098Z" fill="#AEC4CD"/>
<path d="M243.966 170.16L258.682 178.606L268.388 168.871L253.707 160.368C253.405 160.174 252.93 160.303 252.534 160.721L244.534 169.159C244.271 169.445 244.077 169.788 243.966 170.16Z" fill="#AEC4CD"/>
<path d="M278.792 149.762C278.574 149.638 278.321 149.59 278.072 149.626L270.793 150.346C270.335 150.398 269.907 150.601 269.576 150.922L288.714 161.974L293.602 159.144L293.466 158.258C293.466 158.258 279.03 149.914 278.792 149.762Z" fill="#AEC4CD"/>
<path d="M308.809 192.271H308.773C308.632 192.2 308.477 192.161 308.319 192.156L302.077 191.803C301.94 191.808 301.805 191.785 301.677 191.736C301.55 191.688 301.434 191.614 301.335 191.519C301.237 191.424 301.159 191.311 301.106 191.185C301.053 191.059 301.025 190.924 301.026 190.788C301.112 189.802 301.162 188.822 301.17 187.872C301.179 186.836 301.133 185.8 301.033 184.769C301.049 184.095 301.29 183.447 301.717 182.926L308.686 174.48C308.893 174.247 309.04 173.968 309.114 173.665C309.188 173.363 309.187 173.047 309.111 172.745L305.799 165.422C305.758 165.326 305.688 165.245 305.598 165.192H305.554C305.364 165.137 305.161 165.139 304.972 165.198C304.783 165.257 304.615 165.37 304.489 165.523L297.044 172.32C296.844 172.544 296.574 172.693 296.278 172.743C295.983 172.793 295.679 172.74 295.417 172.594C294.461 171.811 293.387 171.186 292.234 170.743C291.984 170.64 291.776 170.455 291.645 170.218C291.514 169.981 291.468 169.707 291.514 169.44L293.811 159.022C293.845 158.883 293.832 158.738 293.774 158.608C293.717 158.478 293.619 158.37 293.494 158.302C293.273 158.188 293.021 158.145 292.774 158.179L285.495 158.899C285.158 158.934 284.835 159.054 284.556 159.248C284.278 159.442 284.053 159.703 283.904 160.008L279.958 170.592C279.614 171.266 279.054 171.806 278.367 172.126C276.798 172.876 275.291 173.75 273.86 174.739C273.248 175.15 272.564 175.178 272.298 174.739L268.575 169.051C268.309 168.648 267.711 168.734 267.229 169.231L259.237 177.677C259.007 177.902 258.831 178.176 258.724 178.48C258.616 178.783 258.58 179.107 258.618 179.426L260.842 186.965C260.939 187.599 260.795 188.246 260.439 188.779C259.085 190.829 257.856 192.96 256.76 195.158C256.372 195.8 255.75 196.265 255.025 196.454L248.185 198.103C247.846 198.183 247.529 198.341 247.261 198.563C246.993 198.785 246.779 199.067 246.637 199.385L243.195 210.977C243.159 211.104 243.154 211.238 243.18 211.367C243.207 211.497 243.264 211.618 243.348 211.72C243.431 211.823 243.538 211.904 243.659 211.956C243.781 212.008 243.913 212.03 244.045 212.021L250.294 212.374C250.429 212.367 250.565 212.387 250.692 212.433C250.819 212.479 250.935 212.551 251.035 212.642C251.134 212.734 251.214 212.845 251.27 212.968C251.326 213.092 251.356 213.225 251.36 213.36C251.176 215.362 251.176 217.377 251.36 219.379C251.354 220.078 251.098 220.752 250.64 221.28L243.67 229.726C243.463 229.958 243.315 230.238 243.241 230.54C243.167 230.843 243.169 231.159 243.246 231.461L246.558 238.776C246.596 238.874 246.667 238.955 246.759 239.006C246.839 239.05 246.928 239.072 247.018 239.071C247.327 239.046 247.615 238.91 247.832 238.69L255.27 231.886C255.47 231.663 255.74 231.514 256.035 231.464C256.331 231.415 256.635 231.467 256.897 231.612C257.854 232.392 258.928 233.016 260.079 233.462C260.331 233.564 260.539 233.749 260.67 233.986C260.802 234.223 260.847 234.499 260.799 234.766L258.56 245.17C258.524 245.306 258.534 245.451 258.589 245.581C258.643 245.711 258.74 245.82 258.862 245.89C259.082 246.009 259.335 246.052 259.582 246.012L266.862 245.292C267.198 245.255 267.52 245.133 267.798 244.94C268.076 244.746 268.301 244.486 268.453 244.183L272.406 233.599C272.752 232.924 273.311 232.383 273.997 232.058C274.76 231.698 275.538 231.288 276.308 230.842C277.078 230.395 277.748 229.949 278.504 229.452C279.109 229.034 279.8 229.006 280.059 229.409L283.789 235.104C283.834 235.173 283.896 235.23 283.969 235.27C284.271 235.457 284.739 235.327 285.128 234.917L293.12 226.478C293.348 226.252 293.522 225.977 293.628 225.674C293.734 225.371 293.769 225.048 293.732 224.729L291.507 217.198C291.412 216.563 291.558 215.915 291.918 215.383C293.272 213.332 294.498 211.199 295.59 208.997C295.98 208.357 296.605 207.894 297.332 207.708L304.165 206.059C304.506 205.981 304.823 205.823 305.092 205.599C305.361 205.375 305.574 205.091 305.713 204.77L309.176 193.2C309.235 193.027 309.23 192.838 309.163 192.668C309.096 192.498 308.97 192.357 308.809 192.271ZM272.312 220.56L271.909 220.661L271.621 220.726C271.405 220.769 271.189 220.805 270.973 220.834C270.714 220.877 270.469 220.891 270.217 220.913H269.756H269.533C268.058 220.925 266.614 220.491 265.391 219.667C264.167 218.843 263.222 217.669 262.678 216.298C262.146 215.086 261.808 213.798 261.678 212.482C261.591 211.779 261.553 211.072 261.562 210.365C261.606 203.762 264.997 195.583 270.591 189.672C272.208 187.928 274.065 186.422 276.106 185.201C276.698 184.851 277.311 184.538 277.942 184.265C279.556 183.509 281.323 183.134 283.105 183.17H283.162H283.422H283.688C283.782 183.175 283.876 183.187 283.969 183.206C285.242 183.386 286.445 183.899 287.457 184.693C288.468 185.487 289.252 186.534 289.729 187.728C292.818 194.561 289.275 206.448 281.809 214.368C278.655 217.738 275.336 219.84 272.312 220.56Z" fill="#8A9BA2"/>
<path d="M283.616 191.184L279.771 188.966C278.065 188.002 275.718 188.146 273.126 189.643C267.913 192.653 263.679 199.982 263.679 206.009C263.679 209.018 264.73 211.128 266.437 212.122L269.936 214.116L270.771 212.719C271.725 212.507 272.64 212.15 273.486 211.661C278.706 208.651 282.932 201.322 282.932 195.295C282.932 194.482 282.833 193.672 282.637 192.883L283.616 191.184Z" fill="#344CA3"/>
<path opacity="0.1" d="M263.636 205.994C263.636 209.004 264.687 211.114 266.394 212.107L269.9 214.102L270.735 212.705C271.685 212.488 272.598 212.132 273.442 211.646C276.434 209.777 278.867 207.135 280.484 204L266.804 196.08C264.879 199.041 263.784 202.465 263.636 205.994Z" fill="black"/>
<path opacity="0.4" d="M283.616 191.184L279.771 188.966C278.065 188.002 275.725 188.146 273.133 189.643C270.542 191.246 268.378 193.452 266.826 196.073L280.506 203.993C281.999 201.335 282.829 198.357 282.925 195.31C282.923 194.496 282.821 193.686 282.622 192.898L283.616 191.184Z" fill="white"/>
<path d="M276.74 191.76C271.52 194.77 267.286 202.099 267.286 208.126C267.286 214.152 271.52 216.593 276.74 213.583C281.96 210.574 286.186 203.244 286.186 197.218C286.186 191.191 281.96 188.707 276.74 191.76Z" fill="#344CA3"/>
<path d="M279.289 198.881C279.291 199.163 279.272 199.444 279.231 199.723C279.192 200.016 279.129 200.305 279.044 200.587C278.944 200.905 278.826 201.218 278.691 201.523C278.54 201.847 278.36 202.186 278.151 202.553L276.841 204.835L279.188 203.474C279.214 203.455 279.246 203.445 279.278 203.445C279.31 203.445 279.342 203.455 279.368 203.474C279.421 203.539 279.447 203.622 279.44 203.705V205.231C279.44 205.341 279.416 205.449 279.368 205.548C279.332 205.639 279.269 205.717 279.188 205.771L274.249 208.651C274.223 208.671 274.191 208.681 274.159 208.681C274.126 208.681 274.095 208.671 274.069 208.651C274.015 208.587 273.989 208.504 273.997 208.421V207.182C273.999 207.015 274.018 206.849 274.054 206.686C274.099 206.505 274.172 206.332 274.27 206.174L277.064 201.48C277.248 201.196 277.386 200.885 277.474 200.558C277.529 200.347 277.558 200.129 277.561 199.91C277.566 199.822 277.566 199.733 277.561 199.644C277.549 199.538 277.512 199.437 277.453 199.349C277.428 199.305 277.393 199.267 277.352 199.237C277.312 199.207 277.265 199.186 277.215 199.176C277.067 199.157 276.918 199.195 276.798 199.284C276.631 199.38 276.486 199.51 276.373 199.666C276.271 199.806 276.187 199.959 276.121 200.119C276.06 200.257 276.016 200.402 275.991 200.551L275.926 200.854C275.912 200.968 275.871 201.078 275.806 201.173C275.741 201.268 275.654 201.346 275.552 201.401L274.4 202.063C274.38 202.081 274.355 202.091 274.328 202.091C274.301 202.091 274.276 202.081 274.256 202.063C274.233 202.037 274.217 202.006 274.207 201.972C274.197 201.939 274.194 201.903 274.198 201.869C274.207 201.432 274.263 200.998 274.364 200.573C274.475 200.101 274.637 199.642 274.846 199.205C275.063 198.756 275.334 198.335 275.653 197.952C275.97 197.565 276.355 197.241 276.79 196.994C277.116 196.784 277.491 196.663 277.878 196.642C278.169 196.641 278.45 196.746 278.67 196.937C278.897 197.157 279.064 197.432 279.152 197.736C279.253 198.109 279.299 198.495 279.289 198.881Z" fill="#37474F"/>
<path d="M242.274 239.69C240.561 235.292 239.734 230.599 239.84 225.881C239.84 214.361 235.858 206.239 229.393 202.358L228.738 201.977C225.069 200.067 220.894 199.354 216.8 199.939C218.514 204.335 219.346 209.025 219.248 213.742C219.248 225.341 223.287 233.506 229.839 237.358L250.078 249.281C246.526 246.992 243.793 243.634 242.274 239.69Z" fill="#344CA3"/>
<path opacity="0.3" d="M242.274 239.69C240.561 235.292 239.734 230.599 239.84 225.881C239.84 214.361 235.858 206.239 229.393 202.358L228.738 201.977C225.069 200.067 220.894 199.354 216.8 199.939C218.514 204.335 219.346 209.025 219.248 213.742C219.248 225.341 223.287 233.506 229.839 237.358L250.078 249.281C246.526 246.992 243.793 243.634 242.274 239.69Z" fill="black"/>
<path d="M236.823 225.449C236.595 225.387 236.352 225.41 236.139 225.514L228.435 228.984C228.314 229.043 228.181 229.074 228.046 229.075C227.911 229.076 227.778 229.047 227.655 228.991C227.533 228.935 227.424 228.852 227.337 228.749C227.251 228.645 227.188 228.524 227.154 228.394C226.851 227.422 221.574 226.306 221.142 225.47L224.101 218.112L236.823 225.449Z" fill="#AEC4CD"/>
<path d="M224.108 218.141C224.005 218.087 223.89 218.058 223.773 218.058C223.657 218.058 223.542 218.087 223.438 218.141L217.75 204.979C217.876 204.717 217.899 204.417 217.815 204.139C217.731 203.861 217.546 203.624 217.297 203.474L211.76 200.234C211.506 200.092 211.207 200.05 210.923 200.116C210.639 200.183 210.391 200.354 210.226 200.594L203.826 210.221C203.626 210.476 203.371 210.683 203.081 210.826C202.791 210.969 202.472 211.045 202.148 211.049C201.402 211.032 200.656 211.068 199.916 211.157V204.115L195.639 201.653C195.524 201.599 195.397 201.577 195.27 201.588C195.144 201.6 195.023 201.644 194.919 201.718L186.279 206.714C185.998 206.891 185.757 207.126 185.573 207.402C185.39 207.679 185.267 207.992 185.214 208.32L184.35 217.954C184.25 218.632 183.935 219.261 183.45 219.746C181.735 221.349 180.128 223.064 178.64 224.88C178.431 225.113 178.161 225.281 177.86 225.367C177.559 225.452 177.241 225.451 176.941 225.362L171.39 223.426C171.102 223.333 170.792 223.339 170.509 223.443C170.225 223.548 169.985 223.744 169.827 224.002L163.462 234.96C163.321 235.226 163.271 235.532 163.322 235.829C163.373 236.126 163.521 236.398 163.743 236.602L168.2 240.439C168.427 240.654 168.588 240.93 168.665 241.233C168.741 241.537 168.73 241.856 168.632 242.153C167.812 244.341 167.144 246.583 166.63 248.863C166.45 249.527 166.062 250.115 165.522 250.541L157.602 256.106C157.342 256.311 157.128 256.568 156.976 256.861C156.823 257.154 156.734 257.476 156.716 257.806V267.799C156.708 267.924 156.732 268.048 156.786 268.161C156.84 268.273 156.923 268.369 157.026 268.44L167.041 274.2L163.39 281.573C163.263 281.835 163.239 282.135 163.323 282.414C163.407 282.693 163.593 282.93 163.844 283.078L177.466 290.998C177.721 291.14 178.019 291.182 178.303 291.116C178.587 291.049 178.836 290.878 179 290.638L185.192 284.309C185.195 284.427 185.226 284.542 185.284 284.645C185.342 284.748 185.424 284.836 185.523 284.899L198.21 292.222L198.548 282.286C198.548 282.286 195.92 278.88 195.92 278.261L209.751 263.198C210.039 263.288 210.348 263.28 210.63 263.176C210.913 263.071 211.153 262.877 211.314 262.622L217.678 251.599C217.82 251.333 217.869 251.028 217.818 250.73C217.768 250.433 217.62 250.162 217.398 249.958L223.525 230.453C223.782 230.247 223.993 229.989 224.144 229.696C224.296 229.404 224.384 229.083 224.403 228.754L224.108 218.141ZM190.578 260.16C186.862 262.32 183.795 262.766 181.563 261.73C178.942 260.506 200.19 224.088 202.443 226.075C204.25 227.688 205.23 230.669 205.23 234.838C205.201 244.176 198.649 255.516 190.578 260.16Z" fill="#325161"/>
<path d="M210.781 239.546L206.936 237.329C205.23 236.364 202.89 236.508 200.298 238.006C195.078 241.015 190.844 248.345 190.844 254.371C190.844 257.381 191.902 259.49 193.609 260.484L197.108 262.478L197.943 261.082C198.894 260.87 199.806 260.516 200.65 260.03C205.87 257.014 210.104 249.684 210.104 243.658C210.101 242.845 210.002 242.035 209.809 241.246L210.781 239.546Z" fill="#344CA3"/>
<path opacity="0.1" d="M190.808 254.357C190.808 257.366 191.859 259.476 193.558 260.47L197.058 262.464L197.893 261.067C198.843 260.853 199.756 260.496 200.6 260.009C203.594 258.129 206.025 255.474 207.634 252.326L193.954 244.406C192.027 247.379 190.94 250.817 190.808 254.357Z" fill="black"/>
<path opacity="0.4" d="M210.781 239.546L206.936 237.329H206.9C205.194 236.364 202.854 236.508 200.262 238.006C197.669 239.606 195.505 241.813 193.954 244.435L207.634 252.355C209.128 249.698 209.958 246.719 210.054 243.672C210.05 242.859 209.951 242.05 209.758 241.26L210.781 239.546Z" fill="white"/>
<path d="M203.905 240.086C198.685 243.103 194.458 250.426 194.458 256.452C194.458 262.478 198.685 264.919 203.905 261.91C209.125 258.9 213.358 251.57 213.358 245.544C213.358 239.518 209.125 237.077 203.905 240.086Z" fill="#344CA3"/>
<path d="M201.147 250.656C201.121 250.617 201.103 250.574 201.095 250.528C201.086 250.482 201.087 250.435 201.097 250.39C201.113 250.279 201.147 250.172 201.198 250.073L203.214 246.538C203.257 246.451 203.322 246.35 203.394 246.228C203.453 246.125 203.537 246.039 203.638 245.976L204.783 245.314C204.807 245.292 204.838 245.281 204.87 245.281C204.901 245.281 204.932 245.292 204.956 245.314C204.985 245.344 205.007 245.381 205.02 245.42C205.034 245.46 205.039 245.502 205.035 245.544V254.846C205.032 254.957 205.005 255.065 204.956 255.163C204.925 255.253 204.864 255.329 204.783 255.379L203.559 256.099C203.535 256.123 203.503 256.136 203.469 256.136C203.436 256.136 203.403 256.123 203.379 256.099C203.352 256.069 203.332 256.034 203.319 255.995C203.307 255.957 203.303 255.916 203.307 255.876V249.583L202.191 251.52C202.153 251.602 202.086 251.669 202.004 251.707C201.974 251.72 201.941 251.721 201.91 251.711C201.879 251.7 201.854 251.678 201.838 251.65L201.147 250.656Z" fill="#37474F"/>
<path d="M226.225 209.846L224.504 213.36L218.96 219.703L212.48 215.938L203.35 210.66C203.534 210.546 203.691 210.394 203.811 210.214L210.212 200.594C210.375 200.356 210.62 200.187 210.901 200.119C211.182 200.051 211.477 200.09 211.731 200.227L217.318 203.453L225.771 208.32C226.026 208.47 226.215 208.71 226.299 208.994C226.383 209.277 226.357 209.582 226.225 209.846Z" fill="#AEC4CD"/>
<path d="M166.105 249.95C165.947 250.188 165.749 250.397 165.522 250.57L157.602 256.135C157.376 256.305 157.19 256.521 157.054 256.769L170.367 264.48L180.865 258.511L166.105 249.95Z" fill="#AEC4CD"/>
<path d="M170.864 223.332C170.654 223.349 170.45 223.415 170.27 223.525C170.09 223.635 169.938 223.786 169.827 223.966L163.462 234.96C163.321 235.219 163.27 235.518 163.318 235.81L177.25 243.866L185.962 232.087L170.864 223.332Z" fill="#AEC4CD"/>
<path d="M208.326 208.997V212.165L200.622 216.614L185.358 207.794C185.536 207.35 185.848 206.973 186.25 206.714L194.89 201.718C195.021 201.638 195.17 201.593 195.322 201.588C195.415 201.586 195.507 201.609 195.589 201.653L199.758 204.05L199.866 204.115L205.626 207.442L208.326 208.997Z" fill="#AEC4CD"/>
<path d="M237.14 236.09V226.097C237.158 225.975 237.141 225.851 237.09 225.739C237.039 225.627 236.957 225.532 236.854 225.465C236.751 225.398 236.631 225.362 236.508 225.362C236.385 225.362 236.264 225.397 236.161 225.463L228.457 228.934C228.335 228.992 228.202 229.023 228.068 229.024C227.933 229.026 227.799 228.997 227.677 228.941C227.554 228.884 227.446 228.801 227.359 228.698C227.272 228.595 227.21 228.474 227.175 228.343C226.752 227.004 226.169 225.72 225.44 224.52C225.282 224.238 225.19 223.923 225.17 223.601C225.15 223.278 225.203 222.955 225.325 222.655L230.48 212.302C230.606 212.039 230.629 211.74 230.545 211.461C230.461 211.183 230.276 210.946 230.026 210.797L224.446 207.6C224.192 207.456 223.893 207.413 223.609 207.479C223.325 207.546 223.076 207.718 222.913 207.96L216.512 217.579C216.313 217.835 216.059 218.044 215.768 218.188C215.478 218.333 215.159 218.41 214.834 218.414C213.435 218.383 212.037 218.526 210.673 218.839C210.542 218.874 210.406 218.881 210.273 218.857C210.14 218.834 210.013 218.781 209.903 218.704C209.792 218.626 209.7 218.525 209.633 218.408C209.565 218.291 209.525 218.16 209.514 218.026L208.671 209.616C208.678 209.492 208.649 209.369 208.587 209.261C208.525 209.153 208.433 209.066 208.323 209.01C208.212 208.953 208.087 208.93 207.964 208.943C207.841 208.956 207.724 209.005 207.627 209.083L198.987 214.08C198.71 214.259 198.474 214.496 198.296 214.774C198.119 215.052 198.003 215.366 197.958 215.693L197.086 225.319C196.988 226.001 196.673 226.632 196.186 227.119C194.473 228.708 192.866 230.409 191.377 232.21C191.168 232.442 190.898 232.611 190.597 232.696C190.296 232.782 189.977 232.78 189.678 232.692L184.126 230.755C183.839 230.662 183.529 230.668 183.245 230.773C182.962 230.877 182.722 231.074 182.564 231.331L176.199 242.354C176.058 242.619 176.009 242.924 176.06 243.22C176.111 243.515 176.259 243.786 176.48 243.989L180.937 247.834C181.164 248.049 181.325 248.324 181.402 248.628C181.478 248.931 181.467 249.25 181.369 249.547C180.547 251.728 179.876 253.963 179.36 256.236C179.18 256.9 178.791 257.488 178.251 257.914L170.331 263.479C170.069 263.686 169.855 263.946 169.704 264.243C169.552 264.54 169.466 264.867 169.453 265.2V275.194C169.435 275.316 169.453 275.441 169.504 275.554C169.555 275.666 169.637 275.762 169.741 275.829C169.845 275.897 169.966 275.933 170.089 275.934C170.213 275.935 170.334 275.9 170.439 275.834L178.143 272.357C178.265 272.298 178.399 272.267 178.534 272.267C178.669 272.266 178.803 272.295 178.925 272.352C179.048 272.409 179.156 272.493 179.243 272.597C179.329 272.701 179.391 272.823 179.425 272.954C179.842 274.291 180.419 275.573 181.146 276.77C181.304 277.054 181.397 277.369 181.417 277.693C181.437 278.017 181.384 278.342 181.261 278.642L176.127 288.96C176 289.222 175.976 289.522 176.06 289.801C176.144 290.08 176.33 290.317 176.581 290.465L182.154 293.683C182.408 293.826 182.706 293.868 182.99 293.801C183.274 293.735 183.523 293.564 183.687 293.323L190.088 283.697C190.287 283.443 190.54 283.237 190.829 283.093C191.118 282.95 191.436 282.873 191.758 282.869C193.156 282.904 194.553 282.773 195.92 282.48C196.05 282.445 196.187 282.438 196.32 282.462C196.453 282.485 196.58 282.538 196.69 282.615C196.801 282.693 196.893 282.794 196.96 282.911C197.027 283.028 197.068 283.159 197.079 283.294L197.922 291.703C197.918 291.826 197.949 291.947 198.011 292.053C198.074 292.159 198.165 292.245 198.275 292.3C198.384 292.356 198.507 292.38 198.629 292.368C198.752 292.357 198.868 292.311 198.966 292.236L207.606 287.239C207.882 287.059 208.118 286.822 208.295 286.544C208.473 286.266 208.589 285.953 208.635 285.626L209.528 276C209.627 275.319 209.943 274.688 210.428 274.2C212.143 272.617 213.747 270.919 215.23 269.117C215.439 268.882 215.711 268.712 216.013 268.627C216.316 268.541 216.636 268.544 216.937 268.634L222.488 270.571C222.775 270.66 223.084 270.652 223.367 270.548C223.649 270.444 223.89 270.25 224.05 269.995L230.415 258.972C230.557 258.706 230.606 258.4 230.555 258.103C230.504 257.806 230.356 257.534 230.134 257.33L225.678 253.493C225.451 253.277 225.29 253.002 225.214 252.698C225.137 252.395 225.148 252.076 225.246 251.779C226.058 249.588 226.726 247.347 227.247 245.069C227.425 244.404 227.814 243.815 228.356 243.391L236.276 237.826C236.536 237.615 236.748 237.351 236.897 237.052C237.046 236.753 237.129 236.425 237.14 236.09ZM203.3 267.518C195.222 272.184 188.677 268.404 188.677 259.08C188.677 249.756 195.222 238.416 203.3 233.75C211.378 229.085 217.923 232.872 217.923 242.196C217.923 251.52 211.371 262.86 203.3 267.518Z" fill="#8A9BA2"/>
<path d="M228.716 201.977C225.054 200.072 220.887 199.359 216.8 199.939C212.015 200.612 207.417 202.251 203.286 204.756C184.105 215.83 168.38 241.98 166.854 264.559L146.24 252.427C147.759 229.848 163.52 203.69 182.679 192.617C192.651 186.857 201.687 186.252 208.282 189.924L209.06 190.385L228.716 201.977Z" fill="#344CA3"/>
<path d="M407.254 189.701H392.854V174.401C392.854 171.537 393.992 168.789 396.018 166.764C398.043 164.739 400.79 163.601 403.654 163.601H407.528C410.392 163.601 413.139 164.739 415.165 166.764C417.19 168.789 418.328 171.537 418.328 174.401V178.67C418.328 180.123 418.041 181.56 417.484 182.902C416.927 184.243 416.111 185.461 415.082 186.485C414.053 187.51 412.832 188.322 411.489 188.874C410.146 189.425 408.707 189.707 407.254 189.701Z" fill="#263238"/>
<path d="M416.614 165.005L414.75 166.668C414.626 166.548 414.528 166.404 414.462 166.245C414.396 166.086 414.364 165.914 414.368 165.742C414.371 165.57 414.41 165.4 414.482 165.244C414.554 165.087 414.658 164.947 414.786 164.832C414.915 164.718 415.066 164.631 415.23 164.577C415.393 164.523 415.566 164.504 415.738 164.52C415.91 164.536 416.076 164.588 416.227 164.671C416.378 164.754 416.51 164.868 416.614 165.005Z" fill="#263238"/>
<path d="M417.09 167.424L414.642 166.898C414.712 166.574 414.909 166.291 415.189 166.111C415.468 165.931 415.807 165.87 416.132 165.941C416.293 165.974 416.446 166.039 416.581 166.132C416.717 166.225 416.832 166.344 416.922 166.482C417.011 166.62 417.071 166.774 417.1 166.936C417.129 167.098 417.125 167.264 417.09 167.424Z" fill="#263238"/>
<path d="M392.48 313.555C391.004 315.114 389.381 316.527 387.634 317.774C387.354 317.957 387.122 318.204 386.958 318.494C386.734 318.97 386.374 320.143 388.542 320.899C389.638 321.281 390.804 321.422 391.96 321.311C393.115 321.2 394.234 320.841 395.238 320.258C397.016 319.142 397.095 316.824 398.773 315.506C400.018 314.527 401.574 314.275 402.582 312.994C403.302 312.101 403.1 310.913 402.733 309.444C402.337 307.846 402.15 306.629 401.624 306.751L401.71 307.471C401.048 308.522 397.614 308.839 396.087 308.112C394.981 309.989 393.777 311.805 392.48 313.555Z" fill="#263238"/>
<path d="M390.982 315.053C391.501 314.578 392.005 314.095 392.487 313.562C393.506 312.247 394.441 310.869 395.288 309.437C395.878 308.568 396.155 307.524 396.073 306.478L395.648 302.532L401.084 302.143L401.718 307.478C401.847 308.681 400.846 309.754 399.082 311.28C397.318 312.806 395.065 316.363 393.459 317.256C391.854 318.149 390.716 318.113 390.032 317.659C389.348 317.206 389.262 316.817 390.982 315.053Z" fill="#FFA8A7"/>
<path d="M413.166 314.045V313.224C412.842 314.182 411.344 318.307 409.083 320.374C407.276 322.022 404.821 323.923 404.194 325.752C403.568 327.581 407.614 328.301 409.299 327.998C411.258 327.653 413.785 326.558 415.167 324.852C416.132 323.664 416.751 322.253 417.442 321.317C418.134 320.381 419.725 319.337 420.099 318.25C420.308 317.652 420.063 316.356 419.775 315.254C419.487 314.153 419.221 313.13 418.875 313.224V313.85C418.054 314.493 417.037 314.834 415.995 314.815C415.182 314.88 413.158 314.678 413.166 314.045Z" fill="#263238"/>
<path d="M407.449 321.821C408.01 321.324 408.572 320.834 409.083 320.381C410.667 318.941 411.87 316.486 412.568 314.815C412.959 313.86 413.162 312.838 413.166 311.806V308.544H418.875V313.843V313.987C418.602 315.175 415.995 318.307 414.49 320.388C413.49 321.77 411.61 323.527 409.328 323.83C407.154 324.132 406.052 323.455 407.449 321.821Z" fill="#FFA8A7"/>
<path d="M417.738 225.247C422.173 234.924 417.579 269.002 417.579 269.002C417.716 270.571 419.509 273.66 420.178 280.572C420.97 288.737 418.94 309.235 418.94 309.235C418.071 309.738 417.092 310.021 416.088 310.062C415.085 310.102 414.087 309.897 413.18 309.466C413.18 309.466 407.73 278.592 406.7 270.47C405.807 263.386 404.094 246.71 404.094 246.71L399.219 270.406C399.219 270.406 401.084 274.481 401.379 277.505C401.84 282.278 401.379 302.957 401.379 302.957C401.379 302.957 399.428 304.44 395.684 303.893C395.684 303.893 389.348 275.093 388.844 269.333C388.549 265.906 392.444 223.822 392.444 223.822L417.738 225.247Z" fill="#37474F"/>
<path d="M404.086 246.739L402.646 238.819C402.646 238.819 396.562 237.559 393.805 234.967C395.712 237.201 398.206 238.857 401.005 239.748L402.625 246.66L399.795 267.612L404.086 246.739Z" fill="#263238"/>
<path d="M424.959 221.042C424.916 220.409 423.728 213.634 422.907 209.846L414.944 212.287L416.384 219.257L423.094 224.642C425.168 224.225 425.002 221.676 424.959 221.042Z" fill="#FFA8A7"/>
<path d="M386.446 206.758L382.681 213.662L388.534 218.681L393.898 210.178L386.446 206.758Z" fill="#F28F8F"/>
<path d="M400.566 191.378C396.836 191.422 392.725 192.775 391.314 195.698L385.474 207.737C385.474 207.737 388.772 212.568 394.006 212.23L400.566 191.378Z" fill="#344CA3"/>
<path opacity="0.1" d="M400.566 191.378C396.836 191.422 392.725 192.775 391.314 195.698L385.474 207.737C385.474 207.737 388.772 212.568 394.006 212.23L400.566 191.378Z" fill="black"/>
<path d="M409.926 191.638C411.555 192.034 413.075 192.791 414.373 193.853C415.672 194.914 416.716 196.254 417.428 197.772C418.468 200.082 418.564 202.708 417.694 205.087L413.734 216.535C413.734 216.535 415.592 221.014 417.738 225.247C407.809 230.791 395.418 227.875 392.422 223.807C392.3 222.943 392.466 219.077 392.228 214.678C391.969 209.983 391.328 204.691 392.062 201.79C393.43 196.404 396.001 191.35 401.106 191.35L409.926 191.638Z" fill="#344CA3"/>
<path d="M411.402 191.638C414.793 192.12 419.768 192.804 421.482 200.854C423.217 209.018 423.721 211.855 423.721 211.855C423.721 211.855 420.934 215.095 415.318 215.066L413.569 208.882L411.402 191.638Z" fill="#344CA3"/>
<path opacity="0.1" d="M414.836 213.36C414.836 213.36 413.691 209.724 412.993 206.765C412.985 209.874 413.294 212.977 413.914 216.024L414.836 213.36Z" fill="black"/>
<path d="M397.038 168.792C395.691 169.591 394.035 172.968 394.201 180.046C394.338 186.043 396.282 187.526 397.261 187.966C398.24 188.405 400.141 188.131 401.948 187.829V191.429C401.948 191.429 399.421 194.366 399.579 196.015C399.738 197.664 403.23 198.06 405.598 196.447C407.133 195.344 408.449 193.964 409.479 192.379V183.66C409.672 183.896 409.91 184.091 410.179 184.235C410.447 184.378 410.742 184.467 411.045 184.496C411.349 184.524 411.655 184.493 411.946 184.402C412.237 184.312 412.507 184.165 412.741 183.97C414.764 182.623 414.836 179.304 413.662 178.109C412.489 176.914 409.954 177.295 409.479 178.944C409.479 178.944 406.563 179.052 402.675 176.914C401.163 176.099 399.864 174.938 398.885 173.527C397.905 172.116 397.272 170.494 397.038 168.792Z" fill="#FFA8A7"/>
<path d="M400.897 178.534C400.892 178.632 400.907 178.731 400.94 178.824C400.974 178.917 401.025 179.003 401.092 179.076C401.158 179.149 401.238 179.209 401.328 179.251C401.417 179.293 401.514 179.317 401.613 179.322C401.712 179.327 401.811 179.312 401.904 179.279C401.997 179.245 402.082 179.194 402.156 179.127C402.229 179.061 402.288 178.98 402.33 178.891C402.373 178.801 402.397 178.704 402.402 178.606C402.411 178.406 402.341 178.211 402.207 178.063C402.072 177.915 401.885 177.827 401.685 177.817C401.486 177.808 401.29 177.878 401.143 178.012C400.995 178.147 400.906 178.334 400.897 178.534Z" fill="#263238"/>
<path d="M400.695 183.624L398.946 184.178C398.976 184.296 399.03 184.406 399.105 184.502C399.179 184.598 399.273 184.678 399.379 184.737C399.486 184.796 399.603 184.832 399.724 184.844C399.845 184.855 399.967 184.842 400.083 184.805C400.318 184.726 400.513 184.558 400.628 184.338C400.742 184.118 400.766 183.862 400.695 183.624Z" fill="#F28F8F"/>
<path d="M394.712 176.222L396.238 175.164C396.175 175.061 396.091 174.971 395.992 174.902C395.892 174.832 395.78 174.784 395.661 174.76C395.542 174.735 395.42 174.736 395.301 174.761C395.182 174.786 395.07 174.835 394.971 174.905C394.765 175.048 394.623 175.265 394.575 175.511C394.526 175.757 394.576 176.012 394.712 176.222Z" fill="#263238"/>
<path d="M395.065 177.994C395.058 178.095 395.071 178.196 395.104 178.291C395.136 178.387 395.188 178.475 395.255 178.551C395.322 178.627 395.403 178.688 395.494 178.732C395.585 178.776 395.684 178.802 395.785 178.807C395.984 178.813 396.178 178.742 396.326 178.607C396.474 178.473 396.564 178.287 396.577 178.087C396.581 177.988 396.566 177.89 396.532 177.797C396.498 177.704 396.446 177.619 396.379 177.546C396.312 177.473 396.232 177.414 396.142 177.372C396.053 177.33 395.956 177.307 395.857 177.302C395.657 177.294 395.462 177.365 395.315 177.5C395.168 177.635 395.081 177.823 395.072 178.022L395.065 177.994Z" fill="#263238"/>
<path d="M398.622 177.562L398.499 182.098L396.109 181.356L398.622 177.562Z" fill="#F28F8F"/>
<path d="M401.948 187.814C403.878 187.562 407.845 186.418 408.464 184.848C408.215 185.641 407.731 186.339 407.074 186.85C405.886 187.872 401.948 189.01 401.948 189.01V187.814Z" fill="#F28F8F"/>
<path d="M370.376 206.34L392.271 212.107L398.737 239.287L377.914 233.239L370.376 206.34Z" fill="#F5F5F5"/>
<path d="M379.923 224.318C379.722 224.88 378.519 226.421 375.97 226.298L375.654 225.175L379.923 224.318Z" fill="#E0E0E0"/>
<path d="M384.819 225.175C384.913 225.895 386.403 227.234 388.923 228.055C391.803 229.013 396.181 228.509 396.181 228.509L395.785 227.155L384.819 225.175Z" fill="#E0E0E0"/>
<path d="M376.784 210.271L376.604 209.436C376.503 208.975 377.792 208.954 379.484 209.393L382.71 210.228C384.394 210.667 385.842 211.394 385.942 211.855L386.122 212.69L376.784 210.271Z" fill="#E0E0E0"/>
<path d="M375.265 207.125C375.207 206.837 375.726 206.758 376.431 206.952L377.706 207.305C377.706 207.305 377.324 205.498 380.161 206.131C382.998 206.765 383.617 208.81 383.617 208.81L384.985 209.198C385.705 209.414 386.425 209.818 386.511 210.106L386.67 210.624L375.387 207.658L375.265 207.125Z" fill="#37474F"/>
<path d="M376.82 208.025C377.857 208.27 378.26 208.414 378.44 209.119C378.62 209.825 378.685 210.559 378.685 210.559L383.682 211.877C383.682 211.877 383.437 210.847 383.365 210.437C383.293 210.026 383.458 209.789 384.25 210.005L384.315 209.681L376.496 207.694L376.82 208.025Z" fill="#37474F"/>
<path d="M376.64 210.35L376.46 209.515C376.359 209.054 377.648 209.033 379.34 209.472L382.566 210.307C384.25 210.746 385.698 211.474 385.798 211.934L385.978 212.77L376.64 210.35Z" fill="#37474F"/>
<path d="M423.073 224.642L416.362 219.257C416.362 219.257 401.53 221.899 399.802 222.036C398.883 222.056 397.98 221.799 397.209 221.299C396.438 220.798 395.837 220.076 395.482 219.228C394.82 217.522 393.654 217.73 393.654 217.73L394.33 220.61C394.496 221.33 390.32 221.87 388.002 221.086C385.683 220.301 382.335 221.438 384.402 224.592C386.468 227.746 390.522 228.113 393.322 228.113C394.497 228.105 395.671 228.026 396.836 227.875C397.743 227.76 398.643 227.666 399.558 227.602C405.267 227.177 420.459 225.463 423.073 224.642Z" fill="#FFA8A7"/>
<path d="M372.601 214.282L373.573 217.752C373.76 218.414 376.309 219.631 377.893 220.07C379.477 220.51 381.27 221.035 380.506 223.289C379.786 225.362 377.151 225.838 375.805 225.78C374.458 225.722 372.608 224.434 371.881 222.353C370.952 219.703 371.456 216.874 371.089 215.326C370.722 213.778 371.794 213.36 372.601 214.282Z" fill="#FFA8A7"/>
</svg>
