<svg width="592" height="645" viewBox="0 0 592 645" fill="none" xmlns="http://www.w3.org/2000/svg">
<rect width="592" height="645" fill="#E1E1FE"/>
<path d="M175.566 319.033C109.052 357.43 109.059 419.696 175.566 458.094C242.072 496.491 349.914 496.491 416.427 458.094C482.941 419.696 482.934 357.43 416.427 319.033C349.921 280.635 242.079 280.635 175.566 319.033Z" fill="#F5F5F5"/>
<path d="M203.912 444.291L208.275 441.771L182.751 439.402L186.862 454.134L191.226 451.621L244.822 482.365C255.505 484.29 266.289 485.598 277.122 486.282L203.912 444.291Z" fill="#EBEBEB"/>
<path d="M277.842 337.486L446.754 434.377C449.633 431.212 452.28 427.844 454.674 424.297L290.528 330.2L294.891 327.68L269.36 325.275L273.471 340.006L277.842 337.486Z" fill="#EBEBEB"/>
<path d="M176.725 390.543L151.208 388.167L155.312 402.92L159.675 400.4L309.946 486.555C317.384 486.21 324.786 485.583 332.108 484.669L172.362 393.063L176.725 390.543Z" fill="#EBEBEB"/>
<path d="M439.28 376.489L443.6 373.976L418.083 371.6L422.216 386.36L426.572 383.84L463.868 405.231C465.153 400.915 465.936 396.465 466.201 391.969L439.28 376.489Z" fill="#EBEBEB"/>
<path d="M435.558 444.947L384.157 415.463L388.513 412.943L362.996 410.574L367.107 425.305L371.463 422.792L424.405 453.155C428.264 450.616 431.987 447.877 435.558 444.947Z" fill="#EBEBEB"/>
<path d="M391.875 362.341C391.875 362.341 389.334 341.065 397.851 320.775C402.61 309.435 410.444 304.46 415.131 304.215C420.358 303.906 425.377 309.09 420.387 316.455C415.642 323.475 407.024 325.988 401.12 344.614C397.232 356.898 397.326 365.149 397.326 365.149L391.875 362.341Z" fill="#344CA3"/>
<path opacity="0.5" d="M391.875 362.341C391.875 362.341 389.334 341.065 397.851 320.775C402.61 309.435 410.444 304.46 415.131 304.215C420.358 303.906 425.377 309.09 420.387 316.455C415.642 323.475 407.024 325.988 401.12 344.614C397.232 356.898 397.326 365.149 397.326 365.149L391.875 362.341Z" fill="white"/>
<path d="M395.36 357.164C395.403 357.163 395.445 357.154 395.484 357.136C395.523 357.118 395.558 357.093 395.587 357.061C395.616 357.029 395.638 356.992 395.653 356.952C395.667 356.911 395.673 356.868 395.67 356.826C394.568 333.62 406.65 314.871 415.578 308.96C415.614 308.937 415.645 308.908 415.669 308.873C415.693 308.838 415.711 308.798 415.719 308.757C415.728 308.715 415.728 308.672 415.72 308.63C415.712 308.589 415.695 308.549 415.671 308.514C415.648 308.477 415.618 308.446 415.582 308.422C415.546 308.397 415.506 308.38 415.464 308.371C415.422 308.363 415.378 308.363 415.336 308.371C415.294 308.379 415.253 308.396 415.218 308.42C406.16 314.41 393.92 333.397 395.029 356.84C395.029 356.883 395.037 356.926 395.054 356.966C395.071 357.005 395.095 357.042 395.126 357.072C395.157 357.102 395.194 357.126 395.234 357.141C395.274 357.157 395.317 357.165 395.36 357.164Z" fill="white"/>
<path d="M397.304 365.142C398.341 359.871 401.552 354.572 408.14 349.107C414.728 343.642 423.649 338.804 422.655 333.598C421.662 328.393 414.735 329.084 409.796 331.647C404.857 334.21 393.452 344.809 394.59 363.745L397.304 365.142Z" fill="#344CA3"/>
<path opacity="0.65" d="M397.304 365.142C398.341 359.871 401.552 354.572 408.14 349.107C414.728 343.642 423.649 338.804 422.655 333.598C421.662 328.393 414.735 329.084 409.796 331.647C404.857 334.21 393.452 344.809 394.59 363.745L397.304 365.142Z" fill="white"/>
<path d="M396.296 359.137C396.372 359.133 396.444 359.103 396.501 359.051C396.557 359 396.594 358.931 396.606 358.856C398.096 347.682 411.783 334.326 417.874 332.504C417.957 332.477 418.026 332.42 418.066 332.343C418.107 332.266 418.115 332.177 418.091 332.094C418.066 332.012 418.009 331.943 417.934 331.902C417.858 331.862 417.769 331.853 417.687 331.878C411.301 333.793 397.527 347.156 395.958 358.77C395.947 358.855 395.971 358.942 396.023 359.01C396.076 359.079 396.153 359.124 396.238 359.137H396.296Z" fill="white"/>
<path d="M383.3 377.979C377.646 380.048 372.266 382.799 367.28 386.173C361.664 389.967 356.53 394.546 350.547 397.693C342.764 401.782 333.822 403.266 325.059 402.848C320.098 402.61 314.706 401.523 311.516 397.614C310.79 396.59 310.443 395.345 310.537 394.093C310.528 393.18 310.711 392.275 311.073 391.437C311.435 390.598 311.969 389.845 312.639 389.226C319.839 382.213 329.919 379.326 339.582 377.065C349.244 374.804 355.083 371.96 364.594 366.92C368.67 364.76 372.68 362.413 376.784 360.361L376.878 360.31C383.466 357.034 389.578 352.758 397.038 356.646C400.71 358.554 402.754 362.197 401.026 366.178C398.038 373.098 389.794 375.618 383.3 377.979Z" fill="#E0E0E0"/>
<path d="M229.429 360.886L188 384.805L242.079 416.089L242.274 415.966L243.778 415.102C244.268 414.807 244.736 414.534 245.218 414.267C252.418 410.091 257.509 407.017 257.113 404.677C256.832 402.898 253.614 401.89 250.957 401.574C249.518 401.455 248.119 401.044 246.846 400.364C246.368 400.147 245.958 399.804 245.661 399.371C245.364 398.938 245.191 398.433 245.161 397.909C245.161 396.807 245.967 395.662 247.53 394.755C250.41 393.092 254.73 392.919 257.257 394.359C258.202 394.885 258.934 395.726 259.323 396.735C259.775 397.789 260.526 398.688 261.483 399.319C262.44 399.95 263.562 400.286 264.709 400.285C268.971 400.522 273.738 397.772 281.586 393.214L283.458 392.134L229.429 360.886ZM332.166 420.258C330.466 421.23 328.825 422.151 327.212 423.03C322.597 425.593 318.903 427.652 317.283 429.373C316.999 429.611 316.773 429.912 316.623 430.251C316.473 430.591 316.403 430.96 316.419 431.331C316.707 433.102 319.926 434.118 322.582 434.434C324.02 434.546 325.42 434.953 326.694 435.63C327.094 435.853 327.455 436.143 327.759 436.486C328.155 436.931 328.377 437.504 328.386 438.099C328.386 439.194 327.565 440.346 325.995 441.238C323.115 442.909 318.795 443.074 316.282 441.642C315.336 441.118 314.603 440.28 314.209 439.273C313.647 437.732 311.905 435.874 308.816 435.709C305.216 435.5 301.508 437.754 295.856 441.174L293.574 442.52C292.681 443.053 291.759 443.607 290.773 444.183L354.478 480.903C355.854 480.608 357.214 480.313 358.575 480.003C375.236 476.319 391.405 470.688 406.75 463.227L332.166 420.258Z" fill="#E0E0E0"/>
<path d="M182.046 262.218L178.561 261.699C178.337 261.647 178.131 261.536 177.964 261.378C177.797 261.22 177.675 261.02 177.61 260.799C177.443 260.178 177.226 259.571 176.962 258.985C176.905 258.703 176.92 258.41 177.007 258.136C177.094 257.861 177.25 257.613 177.459 257.415L179.23 255.471C179.684 254.974 179.842 254.341 179.583 254.031L176.89 251.115C176.624 250.827 175.99 250.892 175.45 251.259L173.161 252.886C172.947 253.057 172.696 253.174 172.427 253.225C172.158 253.277 171.881 253.262 171.62 253.182C171.011 252.841 170.375 252.549 169.719 252.31C169.511 252.207 169.335 252.049 169.208 251.854C169.082 251.659 169.009 251.434 168.999 251.202L168.841 248.005C168.835 247.776 168.747 247.557 168.592 247.389C168.437 247.221 168.226 247.115 167.998 247.09L164.11 246.932C163.862 246.955 163.629 247.063 163.451 247.237C163.273 247.412 163.16 247.642 163.131 247.89L162.62 250.827C162.562 251.105 162.433 251.363 162.244 251.575C162.056 251.787 161.816 251.946 161.547 252.037C161.028 252.187 160.518 252.367 160.021 252.577C159.798 252.691 159.551 252.751 159.301 252.751C159.05 252.751 158.804 252.691 158.581 252.577L155.866 250.23C155.578 249.97 154.938 250.122 154.426 250.561L152.094 252.62C151.604 253.059 151.374 253.664 151.626 253.988L153.714 256.868C153.812 257.131 153.845 257.414 153.81 257.692C153.774 257.97 153.672 258.236 153.512 258.466C153.31 258.819 153.138 259.186 152.972 259.554C152.872 259.825 152.706 260.067 152.49 260.259C152.274 260.451 152.014 260.587 151.734 260.655L148.335 260.878C148.094 260.915 147.872 261.033 147.708 261.215C147.544 261.396 147.447 261.628 147.435 261.872L147.219 265.371C147.189 265.604 147.246 265.84 147.379 266.034C147.512 266.228 147.711 266.366 147.939 266.422L151.431 266.941C151.655 266.991 151.861 267.1 152.028 267.257C152.196 267.414 152.318 267.613 152.382 267.834C152.549 268.455 152.766 269.061 153.03 269.648C153.087 269.93 153.072 270.223 152.985 270.497C152.898 270.772 152.742 271.02 152.533 271.218L150.762 273.162C150.301 273.658 150.15 274.292 150.409 274.602L153.102 277.525C153.368 277.806 153.994 277.741 154.542 277.374L156.831 275.754C157.042 275.58 157.292 275.462 157.56 275.409C157.828 275.356 158.104 275.371 158.365 275.451C158.975 275.795 159.613 276.086 160.273 276.322C160.482 276.427 160.659 276.585 160.786 276.782C160.912 276.978 160.984 277.205 160.993 277.438L161.151 280.635C161.157 280.863 161.246 281.081 161.401 281.248C161.556 281.415 161.767 281.52 161.994 281.542L165.882 281.701C166.129 281.68 166.361 281.574 166.539 281.401C166.716 281.227 166.828 280.997 166.854 280.75L167.372 277.806C167.431 277.528 167.56 277.271 167.748 277.059C167.936 276.847 168.176 276.687 168.445 276.596C168.963 276.445 169.473 276.265 169.971 276.056C170.194 275.943 170.441 275.885 170.691 275.885C170.941 275.885 171.188 275.943 171.411 276.056L174.118 278.36C174.414 278.612 175.047 278.461 175.558 278.029L177.891 275.962C178.381 275.53 178.611 274.918 178.359 274.602L176.271 271.722C176.173 271.458 176.14 271.174 176.175 270.894C176.21 270.615 176.312 270.348 176.473 270.116C176.667 269.763 176.847 269.396 177.013 269.029C177.112 268.758 177.277 268.516 177.493 268.325C177.71 268.134 177.97 267.999 178.251 267.934L181.65 267.704C181.892 267.669 182.114 267.551 182.279 267.369C182.443 267.188 182.539 266.955 182.55 266.71L182.766 263.211C182.781 262.987 182.717 262.766 182.586 262.584C182.454 262.402 182.263 262.273 182.046 262.218ZM172.614 264.608C172.459 266.618 171.527 268.49 170.017 269.825C168.506 271.161 166.535 271.857 164.521 271.765C163.536 271.739 162.566 271.516 161.669 271.109C160.772 270.702 159.966 270.119 159.299 269.394C158.631 268.67 158.116 267.819 157.784 266.891C157.451 265.964 157.309 264.98 157.364 263.996C157.519 261.986 158.45 260.114 159.961 258.779C161.471 257.443 163.442 256.747 165.457 256.839C166.442 256.865 167.411 257.088 168.308 257.495C169.205 257.902 170.011 258.485 170.679 259.21C171.346 259.934 171.861 260.785 172.194 261.713C172.526 262.64 172.669 263.624 172.614 264.608Z" fill="#F0F0F0"/>
<path d="M153.015 283.162L151.366 285.078C151.249 285.193 151.103 285.275 150.944 285.315C150.785 285.356 150.617 285.353 150.459 285.308C150.016 285.172 149.564 285.071 149.106 285.006C148.92 284.926 148.756 284.802 148.631 284.643C148.505 284.485 148.421 284.298 148.386 284.098L147.889 282.284C147.759 281.816 147.435 281.478 147.169 281.564L144.361 282.075C144.087 282.126 143.886 282.529 143.907 282.982L144.015 284.991C144.039 285.186 144.015 285.384 143.945 285.567C143.875 285.751 143.76 285.914 143.612 286.042C143.168 286.275 142.747 286.548 142.352 286.856C142.207 286.943 142.042 286.989 141.873 286.989C141.704 286.989 141.539 286.943 141.394 286.856L139.393 285.726C139.252 285.64 139.084 285.61 138.922 285.64C138.76 285.671 138.615 285.76 138.514 285.891L136.88 288.166C136.799 288.325 136.775 288.507 136.811 288.681C136.848 288.855 136.943 289.012 137.082 289.124L138.666 290.564C138.812 290.706 138.919 290.883 138.975 291.079C139.032 291.275 139.037 291.482 138.99 291.68C138.883 292.052 138.796 292.429 138.73 292.81C138.713 292.994 138.652 293.17 138.551 293.324C138.451 293.478 138.315 293.606 138.154 293.696L135.692 294.416C135.426 294.495 135.267 294.934 135.346 295.402L135.699 297.606C135.771 298.074 136.066 298.441 136.347 298.419L138.882 298.246C139.162 298.246 139.544 298.57 139.767 298.966C139.911 299.226 140.062 299.47 140.221 299.686C140.349 299.852 140.433 300.046 140.467 300.252C140.501 300.458 140.483 300.67 140.415 300.867L139.249 303.027C139.171 303.185 139.153 303.366 139.2 303.536C139.246 303.706 139.353 303.853 139.501 303.949L141.538 305.425C141.667 305.529 141.827 305.586 141.992 305.586C142.157 305.586 142.317 305.529 142.446 305.425L144.08 303.56C144.197 303.445 144.343 303.363 144.502 303.322C144.662 303.282 144.829 303.284 144.987 303.33C145.43 303.465 145.882 303.566 146.341 303.632C146.526 303.71 146.689 303.834 146.815 303.991C146.941 304.148 147.025 304.334 147.061 304.532L147.558 306.354C147.687 306.822 148.011 307.16 148.278 307.074L151.086 306.562C151.359 306.512 151.561 306.109 151.539 305.655L151.431 303.639C151.408 303.445 151.434 303.248 151.505 303.066C151.577 302.884 151.692 302.722 151.842 302.595C152.28 302.356 152.699 302.081 153.094 301.774C153.239 301.689 153.405 301.644 153.573 301.644C153.742 301.644 153.907 301.689 154.052 301.774L156.054 302.905C156.195 302.99 156.362 303.021 156.524 302.99C156.687 302.96 156.832 302.87 156.932 302.739L158.516 300.442C158.596 300.284 158.619 300.102 158.583 299.928C158.546 299.754 158.451 299.598 158.314 299.485L156.73 298.045C156.584 297.903 156.476 297.726 156.419 297.53C156.363 297.334 156.358 297.127 156.406 296.929C156.514 296.56 156.601 296.185 156.666 295.806C156.682 295.622 156.743 295.446 156.844 295.291C156.944 295.137 157.081 295.01 157.242 294.92L159.711 294.2C159.97 294.121 160.129 293.674 160.05 293.214L159.697 291.01C159.625 290.542 159.337 290.175 159.049 290.197L156.522 290.37C156.234 290.37 155.852 290.046 155.629 289.65C155.492 289.398 155.341 289.153 155.175 288.93C155.049 288.765 154.966 288.572 154.932 288.367C154.898 288.162 154.915 287.953 154.981 287.756L156.154 285.596C156.232 285.437 156.248 285.256 156.2 285.086C156.152 284.916 156.044 284.77 155.895 284.674L153.858 283.198C153.739 283.105 153.593 283.051 153.442 283.044C153.291 283.038 153.142 283.079 153.015 283.162ZM150.855 289.801C152.013 290.666 152.789 291.948 153.019 293.375C153.249 294.802 152.914 296.262 152.086 297.447C151.693 298.035 151.186 298.539 150.595 298.927C150.004 299.315 149.341 299.581 148.645 299.708C147.949 299.835 147.235 299.82 146.545 299.666C145.855 299.511 145.202 299.22 144.627 298.808C143.463 297.947 142.68 296.667 142.443 295.238C142.207 293.809 142.535 292.345 143.36 291.154C143.753 290.563 144.262 290.057 144.856 289.666C145.45 289.276 146.117 289.01 146.816 288.883C147.515 288.757 148.233 288.773 148.925 288.931C149.618 289.088 150.272 289.384 150.848 289.801H150.855Z" fill="#F0F0F0"/>
<path d="M391.947 263.24L392.163 266.739C392.171 266.985 392.266 267.219 392.431 267.401C392.596 267.583 392.82 267.701 393.063 267.733L396.461 267.963C396.742 268.029 397.002 268.164 397.218 268.355C397.434 268.546 397.6 268.787 397.7 269.058C397.859 269.429 398.036 269.792 398.233 270.145C398.392 270.377 398.494 270.643 398.53 270.922C398.567 271.202 398.536 271.485 398.441 271.75L396.346 274.63C396.116 274.947 396.346 275.559 396.821 275.991L399.154 278.058C399.644 278.49 400.285 278.641 400.594 278.389L403.309 276.034C403.532 275.922 403.779 275.863 404.029 275.863C404.279 275.863 404.525 275.922 404.749 276.034C405.244 276.244 405.751 276.425 406.268 276.574C406.536 276.666 406.776 276.825 406.964 277.037C407.152 277.249 407.282 277.507 407.341 277.784L407.859 280.729C407.886 280.975 407.998 281.204 408.175 281.378C408.353 281.551 408.584 281.657 408.831 281.679L412.719 281.521C412.947 281.498 413.158 281.394 413.314 281.227C413.471 281.06 413.561 280.842 413.569 280.614L413.727 277.417C413.736 277.183 413.808 276.957 413.934 276.76C414.061 276.564 414.238 276.405 414.447 276.301C415.104 276.063 415.739 275.772 416.348 275.43C416.61 275.349 416.887 275.335 417.156 275.388C417.425 275.44 417.677 275.559 417.889 275.732L420.171 277.352C420.689 277.719 421.323 277.784 421.611 277.503L424.304 274.58C424.57 274.292 424.412 273.658 423.958 273.14L422.187 271.196C421.978 270.998 421.822 270.75 421.735 270.476C421.648 270.201 421.633 269.909 421.69 269.626C421.951 269.039 422.168 268.432 422.338 267.812C422.401 267.592 422.522 267.393 422.688 267.236C422.854 267.079 423.059 266.97 423.281 266.919L426.774 266.401C427 266.342 427.197 266.203 427.33 266.01C427.462 265.816 427.52 265.582 427.494 265.35L427.27 261.85C427.261 261.605 427.165 261.372 427.001 261.19C426.836 261.008 426.613 260.89 426.37 260.857L422.979 260.634C422.697 260.567 422.435 260.432 422.218 260.239C422 260.047 421.834 259.804 421.734 259.532C421.575 259.165 421.395 258.812 421.201 258.445C421.041 258.214 420.939 257.949 420.903 257.671C420.867 257.393 420.897 257.11 420.992 256.846L423.087 253.966C423.318 253.642 423.087 253.038 422.612 252.598L420.286 250.539C419.789 250.1 419.156 249.949 418.846 250.208L416.132 252.555C415.909 252.67 415.662 252.729 415.412 252.729C415.161 252.729 414.915 252.67 414.692 252.555C414.197 252.345 413.689 252.165 413.173 252.015C412.904 251.925 412.664 251.765 412.475 251.553C412.287 251.341 412.158 251.083 412.1 250.806L411.581 247.868C411.554 247.621 411.443 247.391 411.266 247.216C411.089 247.042 410.857 246.934 410.609 246.91L406.721 247.069C406.493 247.092 406.282 247.197 406.127 247.366C405.971 247.534 405.883 247.754 405.879 247.983L405.721 251.18C405.71 251.412 405.637 251.637 405.511 251.832C405.384 252.027 405.208 252.184 405.001 252.289C404.345 252.529 403.71 252.82 403.1 253.16C402.84 253.24 402.564 253.255 402.296 253.204C402.029 253.152 401.778 253.036 401.566 252.865L399.277 251.238C398.758 250.87 398.125 250.806 397.837 251.094L395.144 254.01C394.878 254.298 395.036 254.931 395.489 255.45L397.261 257.394C397.471 257.591 397.628 257.839 397.716 258.113C397.804 258.388 397.821 258.68 397.765 258.963C397.498 259.55 397.279 260.156 397.109 260.778C397.046 260.998 396.925 261.197 396.759 261.355C396.594 261.513 396.389 261.624 396.166 261.678L392.674 262.196C392.445 262.249 392.245 262.386 392.11 262.578C391.976 262.771 391.918 263.007 391.947 263.24ZM409.227 256.818C411.241 256.727 413.211 257.424 414.721 258.759C416.231 260.094 417.163 261.965 417.32 263.974C417.375 264.959 417.232 265.944 416.899 266.872C416.567 267.799 416.051 268.651 415.383 269.375C414.714 270.1 413.907 270.683 413.01 271.09C412.112 271.496 411.141 271.719 410.156 271.743C408.142 271.835 406.17 271.14 404.66 269.804C403.149 268.468 402.218 266.597 402.063 264.586C402.012 263.603 402.158 262.619 402.494 261.694C402.829 260.768 403.347 259.919 404.016 259.197C404.685 258.474 405.492 257.893 406.39 257.489C407.287 257.084 408.257 256.863 409.241 256.839L409.227 256.818Z" fill="#F0F0F0"/>
<path d="M429.574 273.09L427.537 274.53C427.388 274.625 427.28 274.771 427.232 274.941C427.184 275.111 427.2 275.292 427.277 275.451L428.444 277.611C428.512 277.807 428.53 278.017 428.497 278.221C428.465 278.426 428.382 278.62 428.257 278.785C428.091 279.03 427.94 279.274 427.803 279.505C427.573 279.922 427.191 280.268 426.91 280.225L424.376 280.052C424.095 280.052 423.807 280.398 423.735 280.866L423.375 283.069C423.303 283.537 423.454 283.976 423.721 284.055L426.19 284.775C426.35 284.867 426.485 284.995 426.585 285.149C426.685 285.303 426.747 285.478 426.766 285.661C426.825 286.043 426.912 286.421 427.025 286.791C427.072 286.989 427.066 287.196 427.009 287.391C426.953 287.587 426.847 287.764 426.701 287.907L425.117 289.347C424.977 289.458 424.88 289.614 424.843 289.789C424.806 289.964 424.832 290.147 424.916 290.305L426.5 292.594C426.6 292.725 426.745 292.815 426.907 292.845C427.07 292.876 427.237 292.845 427.378 292.76L429.373 291.63C429.517 291.543 429.683 291.497 429.851 291.497C430.02 291.497 430.186 291.543 430.33 291.63C430.728 291.934 431.149 292.206 431.59 292.443C431.738 292.572 431.853 292.735 431.925 292.918C431.996 293.101 432.022 293.299 432.001 293.494L431.893 295.503C431.893 295.957 432.073 296.36 432.346 296.41L435.147 296.922C435.421 296.972 435.752 296.634 435.867 296.166L436.364 294.351C436.419 294.168 436.516 294.001 436.647 293.862C436.778 293.723 436.94 293.617 437.12 293.552C437.576 293.487 438.026 293.386 438.466 293.25C438.624 293.203 438.792 293.201 438.951 293.241C439.111 293.282 439.257 293.364 439.373 293.48L441.029 295.395C441.158 295.499 441.318 295.556 441.483 295.556C441.648 295.556 441.808 295.499 441.937 295.395L443.974 293.919C444.122 293.823 444.229 293.676 444.275 293.506C444.322 293.336 444.304 293.155 444.226 292.998L443.06 290.838C442.992 290.642 442.974 290.432 443.006 290.227C443.039 290.023 443.122 289.829 443.247 289.664C443.413 289.419 443.564 289.174 443.701 288.944C443.931 288.526 444.313 288.181 444.593 288.224L447.128 288.397C447.409 288.397 447.697 288.051 447.776 287.583L448.129 285.38C448.201 284.919 448.049 284.473 447.783 284.394L445.313 283.674C445.154 283.584 445.018 283.456 444.919 283.302C444.82 283.147 444.76 282.971 444.745 282.788C444.679 282.407 444.592 282.029 444.485 281.658C444.436 281.461 444.44 281.255 444.495 281.061C444.551 280.866 444.657 280.689 444.802 280.549L446.386 279.109C446.526 278.999 446.624 278.845 446.662 278.671C446.7 278.498 446.676 278.316 446.595 278.158L445.04 275.826C444.94 275.695 444.794 275.605 444.632 275.575C444.47 275.544 444.303 275.575 444.161 275.66L442.16 276.79C442.015 276.876 441.849 276.921 441.681 276.921C441.513 276.921 441.347 276.876 441.202 276.79C440.805 276.484 440.383 276.209 439.942 275.97C439.794 275.842 439.679 275.68 439.608 275.498C439.536 275.316 439.51 275.12 439.532 274.926L439.64 272.91C439.64 272.456 439.46 272.053 439.186 272.002L436.385 271.491C436.112 271.441 435.788 271.779 435.665 272.247L435.169 274.069C435.128 274.271 435.036 274.459 434.903 274.617C434.769 274.774 434.598 274.895 434.405 274.969C433.949 275.034 433.499 275.135 433.059 275.271C432.901 275.317 432.734 275.319 432.574 275.279C432.415 275.238 432.269 275.156 432.152 275.041L430.496 273.126C430.371 273.013 430.21 272.947 430.042 272.941C429.873 272.934 429.708 272.987 429.574 273.09ZM440.101 281.11C440.931 282.294 441.268 283.754 441.039 285.182C440.811 286.609 440.035 287.892 438.877 288.757C438.302 289.169 437.65 289.461 436.96 289.616C436.27 289.771 435.556 289.786 434.86 289.66C434.165 289.533 433.501 289.269 432.91 288.881C432.318 288.493 431.811 287.991 431.417 287.403C430.587 286.218 430.252 284.756 430.481 283.327C430.711 281.898 431.489 280.615 432.649 279.75C433.223 279.338 433.875 279.047 434.565 278.892C435.254 278.738 435.968 278.724 436.663 278.851C437.358 278.977 438.021 279.243 438.611 279.631C439.202 280.019 439.708 280.522 440.101 281.11Z" fill="#F0F0F0"/>
<path d="M188 381.529L242.086 412.813L242.281 412.69L243.793 411.826L245.233 410.991C252.433 406.822 257.523 403.748 257.134 401.401C256.846 399.622 253.628 398.614 250.971 398.298C249.533 398.182 248.134 397.773 246.86 397.095C246.381 396.878 245.971 396.533 245.674 396.099C245.377 395.665 245.204 395.158 245.175 394.633C245.175 393.538 245.982 392.386 247.544 391.479C250.424 389.823 254.744 389.643 257.264 391.09C258.215 391.61 258.952 392.449 259.345 393.459C259.899 395 261.649 396.858 264.73 397.016C268.986 397.246 273.752 394.496 281.607 389.946L283.472 388.866L229.472 357.61L188 381.529ZM332.166 416.989C330.466 417.954 328.825 418.868 327.212 419.761C320.732 423.361 316.066 425.938 316.412 428.062C316.529 428.59 316.837 429.057 317.276 429.373C318.471 430.345 320.66 430.935 322.575 431.158C324.012 431.274 325.411 431.68 326.686 432.354C327.165 432.576 327.575 432.923 327.873 433.359C328.171 433.795 328.346 434.303 328.378 434.83C328.352 435.435 328.133 436.016 327.752 436.486C327.267 437.092 326.668 437.596 325.988 437.97C323.108 439.633 318.788 439.798 316.275 438.366C315.327 437.844 314.593 437.005 314.202 435.997C313.64 434.456 311.898 432.598 308.809 432.433C305.209 432.231 301.501 434.478 295.849 437.898C294.344 438.812 292.638 439.842 290.809 440.943L293.61 442.549L358.611 480.046C375.272 476.362 391.441 470.731 406.786 463.27C407.804 462.79 408.812 462.279 409.81 461.737L332.166 416.989Z" fill="#344CA3"/>
<path d="M243.663 287.497L208.714 251.828L173.766 327.853L188 319.638V381.536L229.429 357.61V295.712L243.663 287.497Z" fill="#344CA3"/>
<path d="M228.457 177.135L230.235 173.427L222.459 168.92C221.54 168.386 220.555 167.974 219.529 167.696C219.169 167.602 218.809 167.523 218.442 167.458C216.625 167.158 214.767 167.21 212.97 167.61C212.302 167.749 211.643 167.927 210.997 168.142C210.305 168.366 209.624 168.626 208.959 168.92C208.061 169.319 207.186 169.768 206.338 170.266C205.397 170.814 204.486 171.413 203.61 172.059C202.933 172.549 202.27 173.074 201.608 173.629C191.96 181.794 184.4 196.316 182.442 210.284C182.305 211.234 182.204 212.178 182.125 213.121C182.01 214.474 181.959 215.814 181.959 217.131C181.959 218.218 182.01 219.291 182.089 220.278C182.161 221.156 182.262 222.006 182.384 222.826C182.506 223.647 182.665 224.425 182.845 225.188C183.323 227.28 184.088 229.296 185.12 231.178C185.329 231.553 185.545 231.898 185.775 232.258C186.695 233.691 187.86 234.952 189.217 235.981C189.624 236.279 190.047 236.556 190.484 236.809L197.835 241.05L199.462 237.658C199.894 237.565 200.326 237.45 200.766 237.32C202.555 236.768 204.274 236.007 205.885 235.052C206.921 234.442 207.923 233.776 208.887 233.058C210.181 232.088 211.413 231.037 212.574 229.911C220.63 222.157 226.974 210.032 229.299 197.958C229.644 196.186 229.898 194.398 230.062 192.601C230.192 191.118 230.264 189.649 230.257 188.202C230.257 186.11 230.086 184.023 229.746 181.959C229.463 180.316 229.032 178.701 228.457 177.135Z" fill="#344CA3"/>
<path opacity="0.25" d="M184.213 202.04L199.988 211.148L202.062 205.143L186.272 196.014C185.487 197.986 184.796 199.995 184.213 202.04Z" fill="white"/>
<path opacity="0.25" d="M222.459 168.92C221.54 168.386 220.555 167.974 219.529 167.696C219.169 167.602 218.809 167.523 218.442 167.458C216.625 167.158 214.767 167.21 212.97 167.61L212.25 167.782L228.478 177.142C228.478 177.142 228.478 177.142 228.478 177.106L230.257 173.398L222.459 168.92Z" fill="white"/>
<path opacity="0.25" d="M220.774 191.96L222.848 189.462L199.196 175.861C198.447 176.605 197.713 177.387 196.993 178.208L220.774 191.96Z" fill="white"/>
<path opacity="0.25" d="M191.967 184.897L212.48 196.726L214.734 190.83L195.654 179.814C194.334 181.441 193.104 183.137 191.967 184.897Z" fill="white"/>
<path opacity="0.4" d="M222.459 168.92C221.54 168.386 220.555 167.974 219.529 167.696C219.169 167.602 218.809 167.523 218.442 167.458C216.625 167.158 214.767 167.21 212.97 167.61C212.302 167.749 211.644 167.927 210.997 168.142C210.305 168.366 209.625 168.626 208.959 168.92C208.061 169.319 207.186 169.768 206.338 170.266C205.397 170.814 204.486 171.413 203.61 172.059C202.933 172.549 202.27 173.074 201.608 173.629C192.622 181.218 185.422 194.336 182.888 207.382L215.792 226.383C222.57 218.165 227.195 208.389 229.249 197.936C229.593 196.164 229.848 194.377 230.012 192.579C230.142 191.096 230.214 189.627 230.206 188.18C230.207 186.089 230.036 184.001 229.695 181.938C229.42 180.295 228.995 178.68 228.428 177.114L230.206 173.406L222.459 168.92Z" fill="white"/>
<path opacity="0.1" d="M197.814 241.05L199.441 237.658C199.873 237.565 200.305 237.45 200.744 237.32C202.534 236.768 204.252 236.007 205.863 235.052C206.899 234.442 207.901 233.776 208.866 233.058C210.16 232.088 211.391 231.037 212.552 229.911C213.702 228.8 214.793 227.629 215.821 226.405L182.917 207.404C182.73 208.362 182.571 209.326 182.442 210.284C182.312 211.242 182.204 212.178 182.125 213.121C182.01 214.474 181.959 215.814 181.959 217.131C181.959 218.218 182.01 219.291 182.089 220.278C182.161 221.156 182.262 222.006 182.384 222.826C182.506 223.647 182.665 224.425 182.845 225.188C183.323 227.28 184.088 229.296 185.12 231.178C185.329 231.553 185.545 231.898 185.775 232.258C186.695 233.692 187.86 234.952 189.217 235.981C189.624 236.279 190.047 236.556 190.484 236.809L197.814 241.05Z" fill="black"/>
<path opacity="0.1" d="M185.12 231.178C185.329 231.553 185.545 231.898 185.775 232.258C186.695 233.691 187.86 234.951 189.217 235.981C189.624 236.279 190.047 236.556 190.484 236.809L197.835 241.05L199.462 237.658H199.527L199.642 236.269L183.298 226.83C183.749 228.34 184.359 229.798 185.12 231.178Z" fill="black"/>
<path d="M238.033 186.754C237.697 184.621 237.095 182.538 236.24 180.555C235.203 178.086 233.561 175.917 231.466 174.248C230.182 173.26 228.713 172.538 227.146 172.124C226.786 172.03 226.426 171.951 226.052 171.886C224.235 171.586 222.378 171.638 220.58 172.038C219.913 172.178 219.254 172.356 218.607 172.57C217.915 172.795 217.235 173.055 216.57 173.348C215.679 173.743 214.811 174.187 213.97 174.68C213.025 175.225 212.112 175.824 211.234 176.473C210.565 176.962 209.895 177.488 209.24 178.042C199.592 186.186 191.96 200.708 190.066 214.676C189.937 215.626 189.829 216.57 189.757 217.513C189.642 218.859 189.584 220.206 189.591 221.523C189.591 222.61 189.634 223.683 189.721 224.67C189.793 225.548 189.886 226.398 190.016 227.218C190.146 228.039 190.297 228.817 190.477 229.58C190.941 231.673 191.7 233.69 192.73 235.57C192.942 235.945 193.158 236.305 193.378 236.65C194.301 238.084 195.468 239.344 196.827 240.373C198.797 241.849 201.165 242.697 203.624 242.806C205.464 242.89 207.305 242.646 209.06 242.086C210.85 241.536 212.569 240.775 214.179 239.818C215.217 239.211 216.219 238.545 217.182 237.824C218.476 236.854 219.707 235.803 220.868 234.678C228.925 226.93 235.268 214.798 237.594 202.724C237.936 200.952 238.188 199.164 238.35 197.367C238.486 195.927 238.551 194.415 238.551 192.968C238.551 190.886 238.378 188.808 238.033 186.754Z" fill="#344CA3"/>
<path opacity="0.05" d="M190.549 211.789C190.362 212.754 190.203 213.726 190.066 214.669C189.93 215.612 189.829 216.562 189.757 217.506C189.642 218.852 189.584 220.198 189.591 221.516C189.591 222.603 189.634 223.676 189.721 224.662C189.793 225.541 189.886 226.39 190.016 227.211C190.146 228.032 190.297 228.81 190.477 229.573C190.941 231.666 191.7 233.683 192.73 235.563C192.942 235.938 193.158 236.298 193.378 236.643C194.301 238.077 195.468 239.337 196.827 240.366C198.797 241.842 201.165 242.69 203.624 242.799C205.464 242.882 207.305 242.639 209.06 242.079C210.85 241.529 212.569 240.768 214.179 239.811C215.079 239.286 215.972 238.688 216.85 238.054L190.549 211.789Z" fill="black"/>
<path opacity="0.05" d="M190.93 231.286C191.374 232.787 191.977 234.235 192.73 235.606C192.942 235.981 193.158 236.341 193.378 236.686C194.301 238.12 195.468 239.38 196.827 240.409C198.443 241.618 200.333 242.407 202.328 242.706L190.93 231.286Z" fill="black"/>
<path opacity="0.1" d="M193.897 200.427C193.112 202.4 192.457 204.409 191.838 206.432L220.479 235.074L220.868 234.706C222.108 233.507 223.281 232.241 224.382 230.912L193.897 200.427Z" fill="white"/>
<path opacity="0.1" d="M203.257 184.22C201.945 185.846 200.724 187.543 199.599 189.303L231.121 220.832C232.143 218.91 233.079 216.915 233.922 214.885L203.257 184.22Z" fill="white"/>
<path opacity="0.1" d="M206.835 180.26C206.115 180.98 205.338 181.801 204.61 182.622L234.75 212.761C235.172 211.638 235.566 210.5 235.93 209.348L206.835 180.26Z" fill="white"/>
<path opacity="0.1" d="M238.479 190.815C238.479 190.232 238.4 189.663 238.342 189.102C238.342 188.922 238.342 188.734 238.285 188.547L238.22 187.978C238.162 187.568 238.105 187.158 238.033 186.754C237.697 184.621 237.095 182.538 236.24 180.555C235.203 178.086 233.561 175.917 231.466 174.248C230.182 173.26 228.713 172.538 227.146 172.124C226.786 172.03 226.426 171.951 226.052 171.886C224.235 171.586 222.378 171.638 220.58 172.038L219.86 172.21L238.479 190.815Z" fill="white"/>
<path d="M232.309 196.741C232.309 209.622 224.799 224.504 215.295 230.826C214.892 231.099 214.482 231.351 214.071 231.589C203.991 237.406 195.826 231.236 195.826 217.801C195.826 204.366 203.991 188.763 214.071 182.946C214.482 182.715 214.892 182.492 215.295 182.298C224.799 177.646 232.309 183.853 232.309 196.741Z" fill="#344CA3"/>
<path opacity="0.4" d="M232.309 196.741C232.309 209.622 224.799 224.504 215.295 230.826C214.892 231.099 214.482 231.351 214.071 231.589C203.991 237.406 195.826 231.236 195.826 217.801C195.826 204.366 203.991 188.763 214.071 182.946C214.482 182.715 214.892 182.492 215.295 182.298C224.799 177.646 232.309 183.853 232.309 196.741Z" fill="black"/>
<path d="M231.502 197.209C231.502 197.626 231.502 198.044 231.502 198.462C231.042 210.471 224.043 223.935 215.266 229.782L215.029 229.94C214.719 230.134 214.41 230.329 214.1 230.509C212.42 231.523 210.559 232.2 208.621 232.503C204.531 233.058 201.111 231.265 198.994 227.6C197.613 225.05 196.83 222.218 196.705 219.32C196.662 218.686 196.64 218.038 196.64 217.362C196.64 216.685 196.64 216.13 196.698 215.504C196.774 214.177 196.92 212.855 197.137 211.544C198.678 202.263 203.617 192.824 209.924 187.122C210.795 186.325 211.721 185.591 212.696 184.926C213.15 184.616 213.61 184.328 214.071 184.062C214.532 183.795 214.856 183.63 215.238 183.435L215.562 183.284C217.78 182.152 220.301 181.751 222.762 182.139C226.434 182.859 229.242 185.739 230.617 190.441C231.226 192.645 231.524 194.923 231.502 197.209Z" fill="#344CA3"/>
<path opacity="0.5" d="M231.502 197.209C231.502 197.626 231.502 198.044 231.502 198.462C231.042 210.471 224.043 223.935 215.266 229.782L215.029 229.94C214.719 230.134 214.41 230.329 214.1 230.509C212.42 231.523 210.559 232.2 208.621 232.503C204.531 233.058 201.111 231.265 198.994 227.6C197.613 225.05 196.83 222.218 196.705 219.32C196.662 218.686 196.64 218.038 196.64 217.362C196.64 216.685 196.64 216.13 196.698 215.504C196.774 214.177 196.92 212.855 197.137 211.544C198.678 202.263 203.617 192.824 209.924 187.122C210.795 186.325 211.721 185.591 212.696 184.926C213.15 184.616 213.61 184.328 214.071 184.062C214.532 183.795 214.856 183.63 215.238 183.435L215.562 183.284C217.78 182.152 220.301 181.751 222.762 182.139C226.434 182.859 229.242 185.739 230.617 190.441C231.226 192.645 231.524 194.923 231.502 197.209Z" fill="black"/>
<path d="M228.579 196.784C228.579 196.359 228.579 195.942 228.579 195.524C228.605 193.229 228.309 190.941 227.701 188.727C227.099 186.317 225.814 184.132 224 182.434C223.606 182.296 223.201 182.188 222.79 182.11C220.33 181.722 217.809 182.123 215.59 183.255L215.266 183.406C214.885 183.601 214.489 183.802 214.1 184.033C213.711 184.263 213.178 184.587 212.725 184.897C211.75 185.563 210.824 186.296 209.953 187.093C203.653 192.774 198.706 202.213 197.166 211.515C196.949 212.826 196.802 214.148 196.726 215.475C196.683 216.102 196.669 216.721 196.669 217.333C196.669 217.945 196.669 218.658 196.734 219.291C196.845 222.197 197.618 225.039 198.994 227.6C199.595 228.662 200.369 229.616 201.284 230.422C202.713 230.903 204.235 231.038 205.726 230.818C207.664 230.518 209.525 229.843 211.206 228.831C211.515 228.651 211.832 228.457 212.134 228.255L212.372 228.097C221.12 222.258 228.118 208.794 228.579 196.784Z" fill="#344CA3"/>
<path opacity="0.25" d="M228.579 196.784C228.579 196.359 228.579 195.942 228.579 195.524C228.605 193.229 228.309 190.941 227.701 188.727C227.099 186.317 225.814 184.132 224 182.434C223.606 182.296 223.201 182.188 222.79 182.11C220.33 181.722 217.809 182.123 215.59 183.255L215.266 183.406C214.885 183.601 214.489 183.802 214.1 184.033C213.711 184.263 213.178 184.587 212.725 184.897C211.75 185.563 210.824 186.296 209.953 187.093C203.653 192.774 198.706 202.213 197.166 211.515C196.949 212.826 196.802 214.148 196.726 215.475C196.683 216.102 196.669 216.721 196.669 217.333C196.669 217.945 196.669 218.658 196.734 219.291C196.845 222.197 197.618 225.039 198.994 227.6C199.595 228.662 200.369 229.616 201.284 230.422C202.713 230.903 204.235 231.038 205.726 230.818C207.664 230.518 209.525 229.843 211.206 228.831C211.515 228.651 211.832 228.457 212.134 228.255L212.372 228.097C221.12 222.258 228.118 208.794 228.579 196.784Z" fill="black"/>
<path d="M226.066 171.886C215.533 170.698 206.965 179.425 201.248 187.266C192.99 199.441 187.755 214.856 190.614 229.594C191.55 233.691 193.422 237.81 196.834 240.394C193.35 237.838 191.326 233.727 190.354 229.594C187.719 217.527 191.031 204.848 196.554 194.055C202.45 183.399 212.48 170.432 226.066 171.886Z" fill="#F5F5F5"/>
<path opacity="0.35" d="M218.096 200.442L214.597 198.418L221.365 192.644L224.864 194.667L218.096 200.442Z" fill="black"/>
<path opacity="0.35" d="M220.249 201.774C218.456 200.506 215.353 201.464 212.718 202.292C212.084 202.508 211.515 202.695 210.997 202.854C210.833 203.241 210.745 203.657 210.738 204.078C210.738 206.115 212.466 205.518 216.224 204.322C217.491 203.888 218.788 203.546 220.105 203.3C220.22 204.337 220.94 205.28 223.748 203.797L220.249 201.774Z" fill="black"/>
<path opacity="0.45" d="M211.58 228.313L208.081 226.29V222.157L211.58 224.18V228.313Z" fill="black"/>
<path opacity="0.35" d="M217.52 212.624C217.52 214.266 216.289 215.734 214.46 216.8C211.58 218.492 210.406 217.11 210.14 215.763L209.521 215.403C210.025 215.254 210.508 215.044 210.961 214.777C212.228 214.128 213.232 213.063 213.805 211.76C215.95 211.054 217.52 210.781 217.52 212.624Z" fill="black"/>
<path opacity="0.35" d="M204.495 222.754C204.11 222.529 203.667 222.421 203.221 222.445C203.146 222.23 203.083 222.012 203.034 221.79L199.52 219.766C199.614 220.375 199.838 220.957 200.176 221.472C200.514 221.988 200.958 222.425 201.478 222.754L204.97 224.778C205.135 224.437 205.178 224.05 205.092 223.682C205.005 223.313 204.795 222.986 204.495 222.754Z" fill="black"/>
<path d="M216.224 204.322C212.466 205.554 210.738 206.115 210.738 204.078C210.745 203.657 210.833 203.241 210.997 202.854C208.434 203.646 207.238 203.746 207.238 202.054C207.238 200.809 208.081 199.275 210.399 197.929C212.869 196.489 214.251 196.827 214.597 198.418L221.365 192.658C221.365 192.572 221.307 192.493 221.271 192.406C221.693 192.314 222.098 192.159 222.474 191.946L219.68 190.275L219.414 190.117H219.37C218.546 189.716 217.623 189.563 216.714 189.678C215.501 189.809 214.316 190.127 213.2 190.621V190.52L216.699 188.482L213.2 186.488L210.831 187.87L207.62 189.735V193.861C202.875 197.317 199.916 201.824 199.916 206.706C199.916 208.923 200.514 210.183 201.486 210.824H201.529C201.612 210.877 201.699 210.926 201.788 210.968L204.718 212.617C204.799 212.181 204.744 211.731 204.56 211.328C205.49 211.21 206.408 211.01 207.303 210.73C210.86 209.658 214.021 207.966 214.021 210.601C214.022 210.997 213.949 211.391 213.805 211.76C215.965 211.04 217.52 210.781 217.52 212.624C217.52 214.266 216.289 215.734 214.46 216.8C211.58 218.492 210.406 217.11 210.14 215.763L209.521 215.403L206.641 213.74L199.52 219.766L203.019 221.79C203.13 222.305 203.309 222.804 203.552 223.273C205.118 223.218 206.655 222.837 208.066 222.157V223.827L213.596 223.071V218.946C218.391 215.41 221.696 210.651 221.696 205.676C221.725 204.828 221.59 203.982 221.3 203.185C219.565 203.338 217.858 203.721 216.224 204.322Z" fill="#344CA3"/>
<path opacity="0.15" d="M216.224 204.322C212.466 205.554 210.738 206.115 210.738 204.078C210.745 203.657 210.833 203.241 210.997 202.854C208.434 203.646 207.238 203.746 207.238 202.054C207.238 200.809 208.081 199.275 210.399 197.929C212.869 196.489 214.251 196.827 214.597 198.418L221.365 192.658C221.365 192.572 221.307 192.493 221.271 192.406C221.693 192.314 222.098 192.159 222.474 191.946L219.68 190.275L219.414 190.117H219.37C218.546 189.716 217.623 189.563 216.714 189.678C215.501 189.809 214.316 190.127 213.2 190.621V190.52L216.699 188.482L213.2 186.488L210.831 187.87L207.62 189.735V193.861C202.875 197.317 199.916 201.824 199.916 206.706C199.916 208.923 200.514 210.183 201.486 210.824H201.529C201.612 210.877 201.699 210.926 201.788 210.968L204.718 212.617C204.799 212.181 204.744 211.731 204.56 211.328C205.49 211.21 206.408 211.01 207.303 210.73C210.86 209.658 214.021 207.966 214.021 210.601C214.022 210.997 213.949 211.391 213.805 211.76C215.965 211.04 217.52 210.781 217.52 212.624C217.52 214.266 216.289 215.734 214.46 216.8C211.58 218.492 210.406 217.11 210.14 215.763L209.521 215.403L206.641 213.74L199.52 219.766L203.019 221.79C203.13 222.305 203.309 222.804 203.552 223.273C205.118 223.218 206.655 222.837 208.066 222.157V223.827L213.596 223.071V218.946C218.391 215.41 221.696 210.651 221.696 205.676C221.725 204.828 221.59 203.982 221.3 203.185C219.565 203.338 217.858 203.721 216.224 204.322Z" fill="black"/>
<g opacity="0.2">
<path opacity="0.2" d="M207.634 193.861C204.97 195.886 202.807 198.498 201.313 201.493C200.612 202.996 200.204 204.618 200.11 206.274C200.031 207.096 200.074 207.926 200.24 208.736C200.38 209.561 200.822 210.305 201.478 210.824C200.759 210.354 200.244 209.628 200.038 208.794C199.822 207.967 199.73 207.113 199.765 206.259C199.829 204.55 200.236 202.87 200.96 201.32C201.702 199.783 202.673 198.368 203.84 197.122C204.969 195.887 206.243 194.792 207.634 193.861Z" fill="black"/>
</g>
<path d="M221.314 203.185C219.575 203.337 217.863 203.719 216.224 204.322C212.466 205.554 210.738 206.115 210.738 204.078C210.745 203.657 210.833 203.241 210.997 202.854C211.626 201.612 212.635 200.603 213.877 199.974C216.346 198.534 217.729 198.879 218.074 200.47L224.842 194.71C224.627 193.837 224.121 193.063 223.409 192.515C222.696 191.967 221.818 191.677 220.918 191.694C219.457 191.728 218.018 192.064 216.692 192.68V188.511L213.2 190.52L211.119 191.73V195.855C206.374 199.311 203.415 203.826 203.415 208.693C203.384 209.614 203.529 210.533 203.84 211.4C204.891 214.014 207.757 213.654 210.781 212.768C211.839 212.451 212.869 212.048 213.783 211.774C215.943 211.054 217.498 210.795 217.498 212.638C217.498 214.28 216.267 215.749 214.438 216.814C211.558 218.506 210.385 217.124 210.118 215.778L203.005 221.804C203.116 222.32 203.295 222.819 203.538 223.287C204.466 225.022 206.122 225.505 208.052 225.246C209.262 225.062 210.44 224.708 211.551 224.194V228.327L217.081 225.13V220.976C221.876 217.448 225.181 212.689 225.181 207.714C225.21 204.121 223.51 203.134 221.314 203.185Z" fill="#344CA3"/>
<g opacity="0.1">
<path opacity="0.1" d="M221.314 203.185C219.575 203.337 217.863 203.719 216.224 204.322C212.466 205.554 210.738 206.115 210.738 204.078C210.745 203.657 210.833 203.241 210.997 202.854C211.626 201.612 212.635 200.603 213.877 199.974C216.346 198.534 217.729 198.879 218.074 200.47L224.842 194.71C224.627 193.837 224.121 193.063 223.409 192.515C222.696 191.967 221.818 191.677 220.918 191.694C219.457 191.728 218.018 192.064 216.692 192.68V188.511L213.2 190.52L211.119 191.73V195.855C206.374 199.311 203.415 203.826 203.415 208.693C203.384 209.614 203.529 210.533 203.84 211.4C204.891 214.014 207.757 213.654 210.781 212.768C211.839 212.451 212.869 212.048 213.783 211.774C215.943 211.054 217.498 210.795 217.498 212.638C217.498 214.28 216.267 215.749 214.438 216.814C211.558 218.506 210.385 217.124 210.118 215.778L203.005 221.804C203.116 222.32 203.295 222.819 203.538 223.287C204.466 225.022 206.122 225.505 208.052 225.246C209.262 225.062 210.44 224.708 211.551 224.194V228.327L217.081 225.13V220.976C221.876 217.448 225.181 212.689 225.181 207.714C225.21 204.121 223.51 203.134 221.314 203.185Z" fill="white"/>
</g>
<path opacity="0.1" d="M209.65 216.181L205.28 219.874L210.133 224.734C210.608 224.576 211.09 224.396 211.573 224.18V226.174L212.926 227.528L217.102 225.116V223.676L209.65 216.181Z" fill="white"/>
<path opacity="0.1" d="M221.314 203.185C219.575 203.337 217.863 203.719 216.224 204.322L215.007 204.718L223.755 213.459C224.68 211.679 225.174 209.706 225.195 207.699C225.2 207.134 225.147 206.569 225.037 206.014L222.265 203.242C221.95 203.194 221.632 203.175 221.314 203.185Z" fill="white"/>
<path opacity="0.1" d="M211.854 201.558C212.455 200.916 213.152 200.372 213.92 199.945C216.39 198.505 217.772 198.85 218.118 200.442L218.838 199.808L211.134 192.097V195.884C210.185 196.577 209.285 197.335 208.441 198.152L211.854 201.558Z" fill="white"/>
<path opacity="0.1" d="M218.571 191.996C217.94 192.173 217.32 192.387 216.714 192.637V190.138L215.684 189.08L213.2 190.52L212.775 190.765L220.436 198.44L222.913 196.33L218.571 191.996Z" fill="white"/>
<path opacity="0.1" d="M206.864 213.394L203.516 210.054C203.571 210.514 203.68 210.965 203.84 211.4C204.073 212.007 204.489 212.525 205.032 212.883C205.574 213.241 206.215 213.419 206.864 213.394Z" fill="white"/>
<path d="M211.134 195.884L207.634 193.861V189.735L211.134 191.758V195.884Z" fill="#344CA3"/>
<path opacity="0.35" d="M211.134 195.884L207.634 193.861V189.735L211.134 191.758V195.884Z" fill="black"/>
<path d="M217.11 220.962C217.11 220.962 217.311 220.81 217.65 220.53C217.862 220.373 218.067 220.204 218.262 220.026C218.492 219.824 218.766 219.608 219.039 219.349C219.313 219.09 219.615 218.816 219.918 218.506L220.378 218.031C220.537 217.866 220.688 217.693 220.846 217.52C221.005 217.347 221.163 217.167 221.314 216.98C221.466 216.793 221.631 216.606 221.782 216.411C222.078 216.015 222.387 215.619 222.654 215.194C222.92 214.77 223.186 214.345 223.438 213.92C223.673 213.497 223.884 213.062 224.072 212.617C224.274 212.192 224.41 211.76 224.569 211.357C224.626 211.15 224.684 210.949 224.742 210.752L224.828 210.464C224.828 210.37 224.871 210.277 224.886 210.183C224.965 209.816 225.044 209.463 225.08 209.175C225.116 208.887 225.166 208.606 225.174 208.39C225.174 207.951 225.21 207.67 225.21 207.67C225.21 207.67 225.21 207.922 225.21 208.39C225.203 208.655 225.181 208.92 225.145 209.182C225.112 209.526 225.059 209.867 224.986 210.205C224.986 210.298 224.986 210.392 224.929 210.486C224.871 210.579 224.878 210.68 224.85 210.781C224.821 210.882 224.742 211.184 224.684 211.393C224.547 211.825 224.389 212.251 224.209 212.667C224.029 213.114 223.806 213.546 223.575 213.985C223.345 214.424 223.086 214.863 222.79 215.274C222.495 215.684 222.207 216.102 221.905 216.498C221.754 216.692 221.588 216.879 221.437 217.066L220.962 217.606L220.486 218.118L220.004 218.586C219.702 218.888 219.385 219.154 219.104 219.406C218.823 219.658 218.55 219.874 218.312 220.069C218.074 220.263 217.858 220.422 217.686 220.551L217.11 220.962Z" fill="white"/>
<path d="M211.134 191.758L216.714 188.511V192.637L216.339 189.181L211.134 191.758Z" fill="#FAFAFA"/>
<path d="M211.58 224.18L211.875 227.766L217.11 225.116L211.58 228.313V224.18Z" fill="#FAFAFA"/>
<path d="M228.615 175.558L229.083 169.417L229.551 175.558L235.693 176.026L229.551 176.494L229.083 182.636L228.615 176.494L222.474 176.026L228.615 175.558Z" fill="white"/>
<path d="M233.763 180.793L233.986 177.812L234.217 180.793L237.19 181.016L234.217 181.246L233.986 184.22L233.763 181.246L230.782 181.016L233.763 180.793Z" fill="white"/>
<path d="M383.062 349.525L378.872 351.08L378.008 348.157L381.543 348.229L383.062 349.525Z" fill="black"/>
<path d="M381.262 341.317C381.262 341.317 383.206 343.167 383.811 343.765C384.416 344.362 383.451 348.625 383.091 349.525L381.572 348.229C381.61 349.478 381.811 350.718 382.17 351.915C382.458 353.247 383.336 355.515 382.933 357.87C382.342 361.398 379.779 365.127 376.453 368.18C373.126 371.233 370.426 372.104 368.785 372.226C367.143 372.349 366.07 371.773 365.538 370.729C365.005 369.685 381.262 341.317 381.262 341.317Z" fill="#263238"/>
<path d="M365.883 342.44L364.789 341.331C364.141 341.857 365.595 343.57 366.013 345.802C366.69 349.117 366.918 352.507 366.69 355.882C366.034 361.894 364.702 366.459 364.429 369.152C364.047 372.752 370.398 372.55 375.711 367.467C378.346 364.94 382.033 359.382 381.954 356.624C381.874 353.866 380.456 350.684 380.514 348.589C380.571 346.494 381.874 343.304 381.277 341.324C380.946 340.237 379.117 338.624 377.461 337.306C375.963 336.097 374.581 333.346 373.918 334.218L374.509 335.154C374.739 336.046 374.286 338.192 372.385 340.474C371.42 341.605 368.18 344.55 365.883 342.44Z" fill="#455A64"/>
<path opacity="0.15" d="M370.628 342.058C369.476 342.886 368.014 343.498 366.704 342.987H366.661C367.081 343.322 367.417 343.75 367.644 344.238C367.87 344.725 367.98 345.258 367.964 345.795C368.007 347.768 369.044 361.095 369.044 361.095C369.044 361.095 368.857 349.532 368.842 347.336C368.842 344.089 369.159 343.426 370.635 342.073L370.628 342.058Z" fill="black"/>
<path d="M364.4 369.145C364.63 366.87 365.617 363.262 366.308 358.568C366.553 360.008 366.344 361.448 366.538 361.808C367.006 362.737 370.268 361.808 372.003 360.966C373.738 360.123 373.53 356.84 373.976 353.334C374.422 349.827 378.138 350.302 381.104 352.146C381.539 353.602 381.815 355.101 381.925 356.617C382.004 359.374 378.325 364.933 375.682 367.46C370.398 372.543 364.047 372.752 364.4 369.145Z" fill="#37474F"/>
<path opacity="0.15" d="M371.182 345.32C371.268 345.403 371.383 345.45 371.503 345.45C371.622 345.45 371.737 345.403 371.823 345.32C371.865 345.28 371.899 345.232 371.922 345.179C371.945 345.126 371.957 345.068 371.957 345.01C371.957 344.952 371.945 344.895 371.922 344.842C371.899 344.789 371.865 344.741 371.823 344.701C371.736 344.617 371.62 344.571 371.499 344.571C371.378 344.571 371.262 344.617 371.175 344.701C371.132 344.741 371.098 344.789 371.075 344.842C371.052 344.896 371.041 344.954 371.041 345.012C371.042 345.07 371.055 345.128 371.079 345.181C371.104 345.234 371.139 345.281 371.182 345.32Z" fill="black"/>
<path opacity="0.15" d="M371.154 348.517C371.246 348.594 371.364 348.633 371.485 348.627C371.605 348.62 371.718 348.568 371.802 348.481C371.843 348.441 371.876 348.392 371.898 348.339C371.921 348.286 371.932 348.229 371.932 348.171C371.932 348.113 371.921 348.056 371.898 348.003C371.876 347.95 371.843 347.902 371.802 347.862C371.711 347.781 371.592 347.739 371.47 347.746C371.349 347.753 371.235 347.807 371.154 347.898C371.112 347.938 371.079 347.986 371.057 348.039C371.035 348.092 371.023 348.15 371.023 348.207C371.023 348.265 371.035 348.322 371.057 348.375C371.079 348.428 371.112 348.477 371.154 348.517Z" fill="black"/>
<path opacity="0.15" d="M371.132 351.678C371.219 351.761 371.335 351.808 371.456 351.808C371.577 351.808 371.693 351.761 371.78 351.678C371.819 351.634 371.85 351.584 371.869 351.529C371.889 351.474 371.897 351.415 371.894 351.357C371.89 351.299 371.875 351.241 371.85 351.189C371.824 351.137 371.788 351.09 371.744 351.051C371.652 350.974 371.533 350.935 371.413 350.941C371.293 350.948 371.179 351 371.096 351.087C371.024 351.171 370.988 351.28 370.994 351.39C371.001 351.5 371.051 351.603 371.132 351.678Z" fill="black"/>
<path opacity="0.15" d="M371.103 354.846C371.196 354.923 371.314 354.962 371.434 354.955C371.555 354.949 371.668 354.897 371.751 354.81C371.794 354.77 371.827 354.722 371.85 354.669C371.873 354.615 371.885 354.558 371.885 354.5C371.885 354.442 371.873 354.385 371.85 354.331C371.827 354.278 371.794 354.23 371.751 354.19C371.665 354.107 371.55 354.061 371.431 354.061C371.311 354.061 371.196 354.107 371.11 354.19C371.063 354.23 371.024 354.28 370.998 354.337C370.971 354.393 370.957 354.454 370.956 354.516C370.956 354.579 370.969 354.64 370.994 354.697C371.019 354.754 371.057 354.805 371.103 354.846Z" fill="black"/>
<path opacity="0.15" d="M371.082 358.006C371.173 358.087 371.292 358.129 371.413 358.122C371.534 358.115 371.648 358.061 371.73 357.97C371.769 357.928 371.799 357.878 371.818 357.823C371.838 357.769 371.846 357.711 371.843 357.653C371.839 357.595 371.824 357.539 371.799 357.487C371.773 357.435 371.737 357.389 371.694 357.351C371.601 357.274 371.483 357.235 371.363 357.241C371.242 357.248 371.129 357.3 371.046 357.387C371.007 357.43 370.976 357.48 370.957 357.534C370.938 357.589 370.929 357.647 370.933 357.704C370.936 357.762 370.951 357.819 370.976 357.871C371.002 357.922 371.038 357.969 371.082 358.006Z" fill="black"/>
<path d="M371.6 345.147C371.628 345.115 371.646 345.075 371.65 345.032C371.649 344.984 371.63 344.938 371.596 344.904C371.563 344.869 371.518 344.848 371.47 344.845C371.341 344.845 368.281 344.73 366.243 346.688C366.226 346.704 366.212 346.724 366.203 346.745C366.194 346.767 366.189 346.79 366.189 346.814C366.189 346.838 366.194 346.861 366.203 346.883C366.212 346.904 366.226 346.924 366.243 346.94C366.279 346.972 366.325 346.989 366.373 346.989C366.421 346.989 366.467 346.972 366.502 346.94C368.432 345.09 371.427 345.198 371.456 345.205C371.483 345.205 371.509 345.2 371.534 345.19C371.559 345.181 371.581 345.166 371.6 345.147Z" fill="#263238"/>
<path d="M371.6 348.308C371.631 348.277 371.649 348.236 371.65 348.193C371.651 348.169 371.648 348.146 371.639 348.123C371.631 348.101 371.619 348.081 371.603 348.063C371.587 348.046 371.567 348.032 371.546 348.022C371.524 348.012 371.501 348.007 371.478 348.006C371.348 348.006 368.288 347.883 366.25 349.849C366.234 349.865 366.222 349.884 366.213 349.905C366.204 349.926 366.2 349.948 366.2 349.971C366.2 349.994 366.204 350.017 366.213 350.038C366.222 350.059 366.234 350.078 366.25 350.094C366.267 350.111 366.287 350.125 366.31 350.134C366.332 350.144 366.356 350.149 366.38 350.149C366.404 350.149 366.428 350.144 366.45 350.134C366.473 350.125 366.493 350.111 366.51 350.094C368.432 348.25 371.427 348.358 371.463 348.358C371.488 348.361 371.514 348.358 371.537 348.349C371.561 348.34 371.583 348.326 371.6 348.308Z" fill="#263238"/>
<path d="M371.6 351.476C371.631 351.445 371.649 351.404 371.65 351.361C371.651 351.312 371.632 351.266 371.598 351.231C371.565 351.196 371.519 351.175 371.47 351.174C371.341 351.174 368.288 351.051 366.243 353.017C366.226 353.032 366.213 353.051 366.203 353.072C366.194 353.093 366.189 353.116 366.189 353.139C366.189 353.162 366.194 353.185 366.203 353.206C366.213 353.227 366.226 353.246 366.243 353.262C366.26 353.279 366.28 353.293 366.302 353.302C366.325 353.312 366.349 353.317 366.373 353.317C366.397 353.317 366.421 353.312 366.443 353.302C366.466 353.293 366.486 353.279 366.502 353.262C368.425 351.418 371.427 351.526 371.456 351.526C371.482 351.53 371.509 351.527 371.534 351.518C371.559 351.509 371.582 351.495 371.6 351.476Z" fill="#263238"/>
<path d="M371.542 354.637C371.559 354.623 371.572 354.605 371.581 354.585C371.59 354.565 371.594 354.543 371.593 354.522C371.594 354.498 371.59 354.475 371.582 354.453C371.574 354.431 371.561 354.412 371.545 354.395C371.529 354.378 371.509 354.365 371.488 354.355C371.466 354.346 371.443 354.342 371.42 354.342C371.29 354.342 368.23 354.219 366.193 356.178C366.16 356.211 366.141 356.256 366.141 356.304C366.141 356.351 366.16 356.396 366.193 356.43C366.228 356.461 366.275 356.479 366.322 356.479C366.37 356.479 366.416 356.461 366.452 356.43C368.374 354.579 371.377 354.694 371.406 354.694C371.457 354.694 371.506 354.673 371.542 354.637Z" fill="#263238"/>
<path d="M371.521 357.805C371.55 357.773 371.568 357.733 371.571 357.69C371.572 357.666 371.569 357.642 371.56 357.62C371.552 357.598 371.54 357.578 371.524 357.56C371.508 357.543 371.488 357.529 371.467 357.519C371.445 357.509 371.422 357.503 371.398 357.502C371.269 357.502 368.209 357.38 366.164 359.338C366.147 359.354 366.133 359.373 366.124 359.394C366.115 359.415 366.11 359.438 366.11 359.461C366.11 359.484 366.115 359.507 366.124 359.528C366.133 359.549 366.147 359.568 366.164 359.583C366.181 359.601 366.201 359.615 366.223 359.624C366.246 359.633 366.269 359.638 366.294 359.638C366.318 359.638 366.342 359.633 366.364 359.624C366.386 359.615 366.406 359.601 366.423 359.583C368.353 357.74 371.348 357.848 371.377 357.848C371.403 357.851 371.428 357.848 371.453 357.841C371.478 357.834 371.501 357.821 371.521 357.805Z" fill="#263238"/>
<path d="M319.234 256.141C318.702 264.589 318.644 273.06 319.062 281.514C319.645 295.107 320.422 301.594 326.737 309.831C332.374 317.19 363.291 342.022 365.775 344.535C365.775 344.535 375.855 344.722 375.589 334.844C375.589 334.844 367.978 321.942 362.902 313.186C357.826 304.431 351.505 300.514 351.505 300.514L356.746 260.468L319.234 256.141Z" fill="#263238"/>
<path d="M353.211 260.137L356.725 260.468V260.612L351.685 299.226L351.49 300.198H351.555L351.519 300.493C355.007 302.922 358.039 305.947 360.476 309.428C359.346 312.942 357.034 319.119 357.034 319.119C356.862 320.07 359.914 323.684 359.194 335.247C359.144 336.082 359.022 337.292 358.878 338.595C351.253 332.209 340.878 323.475 333.822 316.995C333.368 315.224 331.978 309.392 332.18 304.849C332.382 300.306 332.857 278.05 332.857 278.05C330.744 276.983 328.845 275.536 327.255 273.781C325.935 272.381 324.965 270.689 324.426 268.842C323.106 265.966 321.973 263.007 321.034 259.986L353.211 260.137Z" fill="black"/>
<path d="M346.155 386.641L341.886 385.302L343.117 382.515L345.817 384.711L346.155 386.641Z" fill="black"/>
<path d="M350.115 379.16C350.115 379.16 350.425 381.781 350.504 382.602C350.583 383.422 347.048 386.151 346.184 386.619L345.846 384.69C345.063 385.677 344.409 386.761 343.902 387.915C343.261 389.125 342.462 391.393 340.611 392.991C337.846 395.374 333.411 396.706 328.839 397.066C324.267 397.426 321.582 396.447 320.199 395.547C318.817 394.647 318.378 393.546 318.644 392.415C318.91 391.285 350.115 379.16 350.115 379.16Z" fill="#263238"/>
<path d="M337.393 370.743L337.263 369.224C336.414 369.224 336.428 371.449 335.298 373.436C333.648 376.418 331.617 379.172 329.257 381.63C324.822 385.899 320.804 388.628 318.824 390.55C316.174 393.114 321.25 396.8 328.71 396.087C332.418 395.727 338.919 393.654 340.662 391.465C342.404 389.276 343.376 385.95 344.78 384.351C346.184 382.753 349.287 381.082 350.115 379.182C350.576 378.138 350.18 375.769 349.777 373.753C349.402 371.91 350.115 368.936 349.057 369.21L348.898 370.297C348.495 371.125 346.738 372.514 343.772 373.126C342.267 373.436 337.818 373.753 337.393 370.743Z" fill="#455A64"/>
<path opacity="0.15" d="M341.36 373.306C339.92 373.249 338.365 372.86 337.702 371.643V371.607C337.813 372.131 337.796 372.673 337.655 373.189C337.513 373.705 337.251 374.18 336.889 374.574C335.6 376.136 327.68 387.08 327.68 387.08C327.68 387.08 335.089 378.001 336.514 376.28C338.617 373.746 339.308 373.4 341.346 373.278L341.36 373.306Z" fill="black"/>
<path d="M318.824 390.55C320.494 388.923 323.619 386.72 327.226 383.509C326.506 384.754 325.383 385.748 325.29 386.158C325.045 387.166 328.17 388.419 330.092 388.815C332.014 389.211 333.98 386.547 336.615 384.099C339.25 381.651 341.835 384.272 342.937 387.498C342.322 388.897 341.559 390.227 340.662 391.465C338.919 393.625 332.418 395.727 328.71 396.087C321.25 396.8 316.16 393.114 318.824 390.55Z" fill="#37474F"/>
<path opacity="0.15" d="M339.632 376.194C339.655 376.311 339.722 376.415 339.82 376.484C339.919 376.552 340.039 376.58 340.158 376.561C340.216 376.553 340.271 376.533 340.322 376.504C340.372 376.474 340.416 376.434 340.451 376.388C340.486 376.341 340.511 376.287 340.525 376.23C340.539 376.174 340.541 376.115 340.532 376.057C340.509 375.939 340.442 375.835 340.344 375.767C340.245 375.698 340.125 375.671 340.006 375.69C339.948 375.697 339.893 375.717 339.842 375.747C339.792 375.776 339.748 375.816 339.713 375.863C339.678 375.91 339.653 375.963 339.639 376.02C339.625 376.077 339.623 376.136 339.632 376.194Z" fill="black"/>
<path opacity="0.15" d="M337.544 378.634C337.567 378.752 337.634 378.856 337.732 378.924C337.831 378.993 337.951 379.021 338.07 379.002C338.128 378.994 338.184 378.974 338.234 378.945C338.285 378.915 338.329 378.876 338.365 378.829C338.4 378.782 338.426 378.729 338.441 378.672C338.456 378.615 338.459 378.556 338.451 378.498C338.427 378.381 338.359 378.278 338.261 378.21C338.163 378.142 338.043 378.113 337.926 378.13C337.867 378.137 337.81 378.156 337.759 378.186C337.708 378.215 337.663 378.254 337.628 378.301C337.592 378.348 337.566 378.402 337.552 378.459C337.538 378.517 337.535 378.576 337.544 378.634Z" fill="black"/>
<path opacity="0.15" d="M335.456 381.068C335.479 381.186 335.546 381.29 335.644 381.358C335.743 381.427 335.863 381.454 335.982 381.435C336.04 381.428 336.097 381.409 336.148 381.38C336.199 381.351 336.244 381.311 336.279 381.264C336.315 381.217 336.341 381.164 336.355 381.106C336.37 381.049 336.372 380.99 336.363 380.931C336.341 380.814 336.273 380.711 336.174 380.643C336.076 380.576 335.955 380.55 335.838 380.571C335.78 380.578 335.724 380.597 335.673 380.626C335.623 380.655 335.578 380.693 335.543 380.74C335.507 380.786 335.481 380.839 335.466 380.895C335.451 380.952 335.448 381.01 335.456 381.068Z" fill="black"/>
<path opacity="0.15" d="M333.375 383.48C333.396 383.597 333.462 383.701 333.559 383.77C333.656 383.838 333.776 383.866 333.894 383.847C333.952 383.84 334.009 383.821 334.06 383.792C334.111 383.763 334.156 383.723 334.191 383.676C334.227 383.629 334.253 383.576 334.267 383.518C334.282 383.461 334.284 383.402 334.275 383.343C334.252 383.226 334.185 383.122 334.087 383.053C333.989 382.985 333.868 382.957 333.75 382.976C333.692 382.984 333.636 383.003 333.586 383.033C333.535 383.063 333.491 383.102 333.456 383.149C333.422 383.196 333.396 383.25 333.382 383.307C333.368 383.363 333.366 383.422 333.375 383.48Z" fill="black"/>
<path opacity="0.15" d="M331.28 385.942C331.29 386.002 331.311 386.058 331.343 386.109C331.374 386.159 331.416 386.203 331.465 386.237C331.514 386.272 331.57 386.296 331.628 386.308C331.687 386.32 331.747 386.321 331.806 386.31C331.863 386.303 331.919 386.284 331.969 386.255C332.02 386.226 332.063 386.187 332.098 386.141C332.133 386.094 332.159 386.042 332.173 385.985C332.187 385.929 332.189 385.87 332.18 385.813C332.159 385.694 332.092 385.589 331.993 385.52C331.895 385.452 331.773 385.425 331.654 385.446C331.597 385.453 331.541 385.471 331.491 385.5C331.441 385.529 331.397 385.568 331.362 385.614C331.327 385.661 331.301 385.714 331.287 385.77C331.273 385.827 331.271 385.885 331.28 385.942Z" fill="black"/>
<path d="M340.107 376.28C340.151 376.276 340.192 376.255 340.222 376.222C340.255 376.189 340.274 376.144 340.274 376.096C340.274 376.049 340.255 376.004 340.222 375.97C338.737 374.762 336.858 374.142 334.945 374.228C334.921 374.23 334.899 374.236 334.878 374.247C334.857 374.258 334.839 374.273 334.824 374.291C334.809 374.309 334.798 374.33 334.792 374.353C334.785 374.376 334.783 374.399 334.786 374.422C334.794 374.47 334.818 374.512 334.856 374.542C334.893 374.571 334.941 374.585 334.988 374.581C336.797 374.512 338.569 375.1 339.978 376.237C339.995 376.252 340.016 376.264 340.038 376.272C340.06 376.279 340.084 376.282 340.107 376.28Z" fill="#263238"/>
<path d="M338.019 378.735C338.063 378.728 338.103 378.708 338.134 378.678C338.167 378.644 338.186 378.599 338.186 378.552C338.186 378.505 338.167 378.459 338.134 378.426C336.652 377.21 334.772 376.587 332.857 376.676C332.831 376.675 332.805 376.68 332.781 376.69C332.757 376.7 332.735 376.715 332.718 376.734C332.7 376.753 332.687 376.776 332.679 376.801C332.671 376.826 332.668 376.852 332.671 376.878C332.675 376.904 332.683 376.928 332.697 376.951C332.711 376.973 332.729 376.992 332.751 377.006C332.773 377.02 332.797 377.03 332.823 377.034C332.849 377.038 332.875 377.036 332.9 377.029C335.6 376.762 337.868 378.67 337.89 378.685C337.926 378.716 337.972 378.734 338.019 378.735Z" fill="#263238"/>
<path d="M335.931 381.176C335.953 381.176 335.975 381.17 335.995 381.16C336.015 381.15 336.033 381.136 336.046 381.118C336.065 381.104 336.079 381.085 336.089 381.064C336.099 381.043 336.104 381.019 336.104 380.996C336.104 380.973 336.099 380.95 336.089 380.928C336.079 380.907 336.065 380.889 336.046 380.874C334.567 379.657 332.689 379.034 330.776 379.124C330.73 379.129 330.687 379.153 330.657 379.189C330.628 379.225 330.614 379.272 330.618 379.318C330.625 379.366 330.65 379.408 330.687 379.438C330.725 379.467 330.772 379.481 330.819 379.477C333.526 379.21 335.787 381.118 335.809 381.133C335.843 381.162 335.886 381.177 335.931 381.176Z" fill="#263238"/>
<path d="M333.85 383.617C333.893 383.608 333.933 383.588 333.966 383.559C333.983 383.543 333.997 383.523 334.006 383.502C334.015 383.48 334.02 383.457 334.02 383.433C334.02 383.41 334.015 383.386 334.006 383.365C333.997 383.343 333.983 383.323 333.966 383.307C332.486 382.093 330.607 381.472 328.695 381.565C328.673 381.568 328.651 381.575 328.631 381.586C328.611 381.597 328.593 381.613 328.579 381.631C328.565 381.649 328.555 381.669 328.549 381.691C328.543 381.713 328.541 381.736 328.544 381.759C328.547 381.782 328.554 381.804 328.565 381.824C328.577 381.844 328.592 381.861 328.61 381.875C328.628 381.889 328.649 381.899 328.671 381.905C328.693 381.912 328.716 381.913 328.738 381.91C330.548 381.842 332.321 382.433 333.728 383.574C333.763 383.602 333.806 383.617 333.85 383.617Z" fill="#263238"/>
<path d="M331.762 386.05C331.784 386.049 331.806 386.043 331.826 386.033C331.846 386.023 331.863 386.01 331.878 385.993C331.894 385.977 331.906 385.958 331.915 385.937C331.924 385.916 331.928 385.893 331.928 385.87C331.928 385.848 331.924 385.825 331.915 385.804C331.906 385.783 331.894 385.764 331.878 385.748C330.395 384.532 328.515 383.909 326.6 383.998C326.553 384.004 326.51 384.027 326.479 384.063C326.448 384.099 326.432 384.145 326.434 384.193C326.443 384.24 326.469 384.283 326.508 384.312C326.547 384.342 326.595 384.356 326.643 384.351C329.343 384.085 331.604 385.993 331.633 386.007C331.65 386.023 331.671 386.035 331.693 386.042C331.715 386.05 331.739 386.052 331.762 386.05Z" fill="#263238"/>
<path d="M363.45 253.945C363.45 253.945 364.335 261.382 364.623 265.882C365.208 273.771 364.524 281.703 362.6 289.376C361.16 295.791 355.933 317.456 355.508 319.724C356.703 324.534 357.567 328.486 356.358 339.2C354.5 355.674 349.748 373.45 349.748 373.45C348.438 375.502 338.163 375.2 335.046 372.579C335.046 372.579 334.059 324.519 333.606 314.468C333.217 305.734 335.312 276.855 335.312 276.855C335.312 276.855 321.33 272.312 319.04 257.048L363.45 253.945Z" fill="#263238"/>
<path d="M327.075 206.079C322.179 207.714 320.106 210.003 315.462 216.267C310.933 222.38 304.345 231.315 304.345 231.315L280.304 228.637L282.73 240.769C282.73 240.769 300.133 245.132 305.806 245.866C310.054 246.421 312.286 244.124 315.08 240.826C320.055 234.879 326.406 226.102 326.406 226.102L327.075 206.079Z" fill="#F0F0F0"/>
<path d="M351.44 202.458C351.44 202.458 337.083 201.882 328.4 205.266C326.47 205.986 321.445 210.457 320.343 223.071C318.99 238.501 318.903 258.531 318.903 258.531C319.285 259.849 323.698 267.171 336.946 269.223C350.626 271.333 358.438 270.368 365.214 265.083C365.214 253.095 365.25 252.267 365.286 242.979C365.286 236.982 367.1 225.433 368.115 220.414C368.835 216.886 368.115 211.054 365.912 209.614C363.594 208.117 354.982 205.035 354.982 205.035C353.635 204.431 352.429 203.554 351.44 202.458Z" fill="#FAFAFA"/>
<path d="M348.992 203.07C350.007 203.07 350.763 203.07 351.152 203.07C352.16 204.146 353.365 205.018 354.702 205.64H354.738C354.824 205.64 363.306 208.707 365.538 210.147C367.395 211.35 368.158 216.807 367.46 220.27C366.481 225.109 364.638 236.737 364.58 242.965C364.58 246.061 364.58 248.221 364.58 250.165C364.58 253.981 364.537 256.998 364.544 264.752C360.08 268.143 355.256 269.598 348.474 269.598C344.637 269.542 340.81 269.198 337.026 268.568C323.605 266.487 319.875 259.158 319.53 258.402C319.53 256.695 319.702 237.716 320.97 223.122C322.237 208.527 328.558 205.892 328.623 205.842C335.103 203.307 344.996 203.041 348.956 203.041L348.992 203.07ZM348.956 202.386C344.478 202.386 334.844 202.71 328.386 205.266C326.456 205.986 321.43 210.457 320.329 223.071C318.975 238.501 318.889 258.531 318.889 258.531C319.27 259.849 323.684 267.171 336.932 269.223C340.741 269.858 344.591 270.204 348.452 270.26C355.494 270.26 360.577 268.662 365.17 265.083C365.17 253.095 365.206 252.267 365.242 242.979C365.242 236.982 367.057 225.433 368.072 220.414C368.792 216.886 368.072 211.054 365.869 209.614C363.55 208.117 354.939 205.035 354.939 205.035C353.608 204.426 352.416 203.549 351.44 202.458C351.44 202.458 350.518 202.414 348.999 202.414L348.956 202.386Z" fill="#E0E0E0"/>
<path d="M355.083 173.312C358.849 178.114 357.243 183.392 355.458 188.698C353.398 194.732 353.182 196.712 349.568 198.058C351.498 178.849 343.592 199.902 329.034 184.018C326.398 181.138 326.442 173.672 330.049 170.072C335.154 164.96 347.696 164.24 355.083 173.312Z" fill="#37474F"/>
<path d="M355.134 195.034C352.254 196.042 350.943 193.99 350.943 193.99L350.482 201.514C350.482 201.514 354.306 206.338 350.252 207.505C340.266 210.385 339.546 212.422 336.349 215.814C334.866 212.934 335.794 208.275 335.722 206.569L336.09 200.967C334.941 201.007 333.793 200.888 332.677 200.614C329.797 199.794 327.86 197.655 327.248 193.702C326.528 188.929 327.248 181.412 329.278 174.982C332.382 172.822 342.577 173.11 348.718 177.373C348.178 182.679 349.568 183.622 349.438 185.912C349.287 188.49 349.438 189.087 350.194 189.512C350.95 189.937 351.735 188.742 352.095 188C352.707 186.762 353.218 185.97 354.493 185.725C355.767 185.48 357.15 185.775 358.201 187.532C359.792 190.21 357.2 194.307 355.134 195.034Z" fill="#FFA8A7"/>
<path d="M340.316 184.414C340.302 184.645 340.355 184.874 340.47 185.074C340.585 185.274 340.756 185.435 340.963 185.538C341.169 185.641 341.401 185.681 341.63 185.653C341.859 185.625 342.074 185.531 342.249 185.381C342.425 185.231 342.552 185.033 342.616 184.811C342.679 184.59 342.676 184.354 342.606 184.135C342.537 183.915 342.404 183.72 342.225 183.575C342.045 183.43 341.827 183.342 341.598 183.32C341.442 183.307 341.284 183.325 341.135 183.374C340.986 183.422 340.848 183.499 340.729 183.601C340.61 183.702 340.512 183.827 340.441 183.966C340.37 184.106 340.328 184.258 340.316 184.414Z" fill="#263238"/>
<path d="M339.812 191.809L335.542 192.68C335.589 192.964 335.692 193.235 335.845 193.478C335.998 193.721 336.199 193.932 336.434 194.097C336.669 194.262 336.935 194.378 337.216 194.439C337.497 194.5 337.787 194.504 338.07 194.451C338.645 194.321 339.148 193.974 339.473 193.481C339.798 192.988 339.92 192.389 339.812 191.809Z" fill="#B16668"/>
<path d="M339.33 192.738C338.85 192.738 338.388 192.914 338.029 193.232C337.671 193.551 337.442 193.99 337.386 194.466C337.612 194.502 337.843 194.502 338.07 194.466C338.473 194.378 338.844 194.18 339.141 193.894C339.438 193.608 339.651 193.245 339.754 192.846C339.617 192.794 339.475 192.758 339.33 192.738Z" fill="#F28F8F"/>
<path d="M329.89 180.591L333.08 179C332.979 178.793 332.838 178.608 332.664 178.457C332.491 178.305 332.289 178.189 332.07 178.117C331.851 178.045 331.62 178.017 331.391 178.035C331.161 178.053 330.937 178.117 330.733 178.222C330.316 178.435 329.997 178.799 329.84 179.239C329.683 179.68 329.701 180.164 329.89 180.591Z" fill="#263238"/>
<path d="M341.36 180.217L344.19 182.413C344.334 182.232 344.442 182.024 344.504 181.802C344.567 181.579 344.585 181.346 344.556 181.116C344.527 180.886 344.453 180.665 344.336 180.465C344.22 180.264 344.065 180.09 343.88 179.95C343.508 179.659 343.036 179.524 342.566 179.574C342.096 179.623 341.663 179.854 341.36 180.217Z" fill="#263238"/>
<path d="M330.459 183.32C330.446 183.551 330.501 183.781 330.618 183.981C330.734 184.181 330.907 184.342 331.114 184.445C331.322 184.547 331.555 184.587 331.784 184.558C332.014 184.529 332.23 184.434 332.406 184.283C332.582 184.133 332.709 183.934 332.773 183.712C332.837 183.49 332.834 183.253 332.765 183.033C332.695 182.812 332.563 182.616 332.383 182.47C332.204 182.324 331.985 182.234 331.755 182.211C331.437 182.189 331.123 182.293 330.88 182.501C330.638 182.708 330.487 183.002 330.459 183.32Z" fill="#263238"/>
<path d="M338.365 182.298L336.392 190.16L332.641 188.41C333.922 185.746 335.996 184.076 338.365 182.298Z" fill="#F28F8F"/>
<path d="M336.09 200.967C339.272 200.967 343.736 200.247 345.673 198.706C347.396 197.396 348.685 195.597 349.374 193.544C349.278 194.885 348.916 196.193 348.311 197.394C347.705 198.594 346.867 199.662 345.846 200.535C343.088 202.998 335.96 203.199 335.96 203.199L336.09 200.967Z" fill="#F28F8F"/>
<path d="M360.8 207.26C360.8 207.26 359.029 215.115 359.9 221.106C360.771 227.096 364.299 230.12 366.862 233.122C369.426 236.125 373.609 240.056 378.584 240.322L379.52 224.806C377.541 221.696 375.377 218.708 373.04 215.857C369.57 211.602 369.188 210.097 360.8 207.26Z" fill="#F0F0F0"/>
<path opacity="0.1" d="M360.8 207.26C360.8 207.26 359.029 215.115 359.9 221.106C360.771 227.096 364.299 230.12 366.862 233.122C369.426 236.125 373.609 240.056 378.584 240.322L379.52 224.806C377.541 221.696 375.377 218.708 373.04 215.857C369.57 211.602 369.188 210.097 360.8 207.26Z" fill="black"/>
<path d="M336.32 215.814C337.854 213.913 340.186 209.96 341.54 209.031C342.894 208.102 349.575 204.92 350.475 201.658L350.605 199.75C351.526 199.39 351.75 201.795 354.99 205.042C354.938 207.706 354.012 210.279 352.354 212.365C351.476 213.638 350.288 214.666 348.903 215.353C347.517 216.039 345.979 216.362 344.434 216.289C344.434 216.289 342.174 211.911 341.554 211.688C340.935 211.465 338.307 214.41 336.32 215.814Z" fill="#F0F0F0"/>
<path d="M336.32 215.814C335.478 214.122 335.6 207.75 335.6 207.75L335.931 203.005C335.931 203.005 334.491 202.918 333.346 204.819C330.776 209.211 330.733 212.199 331.093 213.042C332.108 211.184 334.11 210.298 334.455 210.81C334.801 211.321 335.276 214.28 336.32 215.814Z" fill="#F0F0F0"/>
<path d="M368.72 204.106C367.526 202.123 366.742 199.919 366.416 197.626C366.121 194.977 364.414 192.342 363.853 191.276C363.291 190.21 362.002 188.583 361.052 187.064C360.102 185.545 359.821 185.127 358.222 184.63C356.062 183.946 354.32 183.363 353.406 183.507C352.491 183.651 352.441 184.227 353.103 185.12C353.766 186.013 355.335 186.402 355.818 186.618C356.3 186.834 357.322 187.46 357.322 187.46L358.986 190.794C357.537 190.846 356.093 191 354.666 191.254C353.946 191.535 353.096 193.242 353.262 194.264C353.262 194.264 351.822 194.984 352.189 196.309C352.189 196.309 351.267 197.23 351.692 198.145C352.185 199.078 352.782 199.952 353.47 200.751C353.852 201.176 355.537 201.471 355.537 201.471C356.129 202.716 356.884 203.875 357.783 204.92C358.87 205.978 359.67 206.029 360.742 208.081L368.72 204.106Z" fill="#FFA8A7"/>
<path d="M357.394 190.902C356.61 190.434 356.502 189.843 355.674 190.038C354.846 190.232 355.026 191.168 355.026 191.168L357.394 190.902Z" fill="#F28F8F"/>
<path d="M353.283 194.358C353.864 193.985 354.491 193.69 355.148 193.479C355.76 193.278 357.02 193.018 357.02 193.018C356.173 192.975 355.323 193.057 354.5 193.263C354.078 193.367 353.666 193.51 353.269 193.688C353.244 193.882 353.244 194.078 353.269 194.271L353.283 194.358Z" fill="#F28F8F"/>
<path d="M353.01 195.56C352.716 195.638 352.43 195.739 352.153 195.863C352.144 196.059 352.164 196.255 352.21 196.446C352.758 195.855 354.608 195.366 354.608 195.366C354.07 195.372 353.534 195.437 353.01 195.56Z" fill="#F28F8F"/>
<path d="M355.796 202.04C355.445 200.998 354.995 199.993 354.45 199.038C354.27 198.77 353.995 198.58 353.681 198.508C353.366 198.436 353.036 198.486 352.758 198.649C352.484 198.951 353.636 199.066 353.946 199.254C354.703 200.081 355.327 201.021 355.796 202.04Z" fill="#F28F8F"/>
<path d="M359.994 190.844C359.994 190.844 359.475 189.843 358.51 188.245C357.546 186.647 357.596 186.863 356.509 186.488C355.422 186.114 353.348 185.48 352.88 184.71C352.961 184.855 353.052 184.995 353.154 185.127C353.787 185.977 355.386 186.409 355.868 186.625C356.35 186.841 357.373 187.467 357.373 187.467L359.086 190.895L359.994 190.844Z" fill="#F28F8F"/>
<path d="M368.72 204.106C371.866 209.146 380.542 221.43 382.299 226.088C383.523 229.306 383.019 236.348 380.996 238.659C378.973 240.97 374.408 239.271 371.031 235.398C368.115 232.05 366.294 224.691 364.551 219.392C362.809 214.093 360.699 208.102 360.699 208.102L368.72 204.106Z" fill="#FFA8A7"/>
<path d="M361.909 212.322C361.909 212.322 365.826 212.79 368.389 211.335C369.832 210.596 370.979 209.384 371.636 207.901C371.636 207.901 378.39 218.161 380.276 221.293C382.162 224.425 383.739 226.578 383.394 231.25C383.048 235.923 382.573 240.056 379.218 240.337C375.862 240.618 372.111 237.644 370.117 235.297C368.122 232.95 364.256 221.941 361.909 212.322Z" fill="#F0F0F0"/>
<path d="M368.72 204.106C368 202.85 367.397 201.529 366.92 200.161C366.423 198.793 366.438 197.281 365.991 195.927C365.001 193.21 363.605 190.659 361.851 188.36C360.973 187.266 360.476 185.718 359.166 185.07C358.338 184.774 351.865 182.247 352.923 184.594C353.823 186.265 356.106 186.265 357.452 187.41L359.108 190.75C359.187 190.923 359.216 190.88 359.022 190.894C357.716 190.944 356.413 191.06 355.119 191.24C354.45 191.24 354.061 191.852 353.766 192.414C353.439 192.991 353.298 193.654 353.362 194.314C352.976 194.472 352.656 194.76 352.459 195.128C352.262 195.496 352.199 195.921 352.282 196.33C352.054 196.531 351.882 196.786 351.781 197.072C351.68 197.359 351.654 197.666 351.706 197.965C351.955 198.523 352.264 199.051 352.628 199.542C352.939 200.061 353.338 200.522 353.809 200.902C354.374 201.158 354.969 201.342 355.58 201.45C356.168 202.751 356.957 203.952 357.92 205.006C359 205.906 360.181 206.756 360.764 208.102C360.159 206.756 358.978 205.942 357.884 205.057C356.917 204.013 356.118 202.825 355.515 201.536C354.915 201.451 354.33 201.279 353.78 201.025C353.287 200.637 352.867 200.164 352.542 199.628C351.742 198.519 351.008 197.468 352.174 196.258V196.33C352.087 195.898 352.149 195.449 352.35 195.056C352.552 194.664 352.881 194.351 353.283 194.17L353.24 194.257C353.211 193.752 353.283 193.247 353.452 192.771C353.622 192.295 353.885 191.858 354.226 191.485C354.465 191.231 354.787 191.073 355.134 191.038C356.437 190.848 357.749 190.726 359.065 190.671L358.978 190.815L357.308 187.489C356.091 186.582 353.586 186.286 352.786 184.674C351.634 181.837 358.266 184.522 359.266 184.89C359.921 185.253 360.455 185.802 360.8 186.466C362.751 189.505 365.041 192.392 366.135 195.891C366.567 197.281 366.531 198.771 367.006 200.139C367.454 201.512 368.028 202.84 368.72 204.106Z" fill="#B16668"/>
<path d="M327.86 251.72C327.766 249.049 325.902 245.924 323.698 244.729C322.881 244.268 321.936 244.086 321.006 244.21C320.019 244.309 319.025 244.139 318.127 243.718C317.23 243.297 316.463 242.641 315.908 241.82C314.122 239.372 314.072 235.866 314 230.559C314 229.119 313.964 227.521 313.921 225.786C305.914 220.998 297.555 216.195 295.662 217.002L295.575 217.045C294.553 217.606 295.28 219.622 296.238 221.235C296.935 222.249 297.363 223.423 297.483 224.648C297.577 226.952 294.992 227.391 291.723 225.649C288.454 223.906 285.783 220.609 285.697 218.319C285.669 217.899 285.752 217.479 285.936 217.1C286.121 216.721 286.4 216.397 286.748 216.159C287.655 215.533 288.274 214.179 287.065 212.415C285.085 209.535 278.821 206.518 270.843 202.702V202.76L270.894 204.164C270.894 204.618 270.894 205.057 270.894 205.496C271.131 212.221 271.182 217.016 269.274 217.635C267.834 218.132 265.616 216.274 264.162 214.525C263.413 213.56 262.49 212.744 261.44 212.12C261.061 211.869 260.625 211.718 260.172 211.68C259.719 211.643 259.263 211.719 258.848 211.904C258.042 212.343 257.559 213.344 257.61 214.784C257.703 217.462 259.561 220.594 261.771 221.775C262.591 222.237 263.538 222.421 264.471 222.301C265.456 222.201 266.449 222.369 267.346 222.789C268.242 223.209 269.008 223.864 269.562 224.684C271.722 227.564 271.83 232.021 272.074 239.336L272.132 241.078C279.411 245.398 286.309 249.229 288.296 248.365L288.375 248.329C289.398 247.782 288.67 245.751 287.713 244.153C287.025 243.129 286.597 241.952 286.467 240.726C286.395 238.429 288.966 237.99 292.227 239.739C295.489 241.489 298.182 244.779 298.254 247.062C298.279 247.482 298.195 247.901 298.011 248.279C297.827 248.658 297.548 248.982 297.202 249.222C296.302 249.848 295.676 251.202 296.9 252.958C298.707 255.572 305.302 259.042 312.942 263.038C313.662 263.427 314.432 263.816 315.202 264.212C315.13 262.635 315.058 261.116 314.972 259.633C314.655 253.671 314.425 249.373 316.146 248.782C317.586 248.286 319.803 250.15 321.258 251.893C322.018 252.869 322.959 253.691 324.03 254.312C324.407 254.567 324.844 254.72 325.297 254.758C325.751 254.796 326.207 254.717 326.622 254.528C327.428 254.182 327.91 253.16 327.86 251.72Z" fill="#344CA3"/>
<path opacity="0.3" d="M327.86 251.72C327.766 249.049 325.902 245.924 323.698 244.729C322.881 244.268 321.936 244.086 321.006 244.21C320.019 244.309 319.025 244.139 318.127 243.718C317.23 243.297 316.463 242.641 315.908 241.82C314.122 239.372 314.072 235.866 314 230.559C314 229.119 313.964 227.521 313.921 225.786C305.914 220.998 297.555 216.195 295.662 217.002L295.575 217.045C294.553 217.606 295.28 219.622 296.238 221.235C296.935 222.249 297.363 223.423 297.483 224.648C297.577 226.952 294.992 227.391 291.723 225.649C288.454 223.906 285.783 220.609 285.697 218.319C285.669 217.899 285.752 217.479 285.936 217.1C286.121 216.721 286.4 216.397 286.748 216.159C287.655 215.533 288.274 214.179 287.065 212.415C285.085 209.535 278.821 206.518 270.843 202.702V202.76L270.894 204.164C270.894 204.618 270.894 205.057 270.894 205.496C271.131 212.221 271.182 217.016 269.274 217.635C267.834 218.132 265.616 216.274 264.162 214.525C263.413 213.56 262.49 212.744 261.44 212.12C261.061 211.869 260.625 211.718 260.172 211.68C259.719 211.643 259.263 211.719 258.848 211.904C258.042 212.343 257.559 213.344 257.61 214.784C257.703 217.462 259.561 220.594 261.771 221.775C262.591 222.237 263.538 222.421 264.471 222.301C265.456 222.201 266.449 222.369 267.346 222.789C268.242 223.209 269.008 223.864 269.562 224.684C271.722 227.564 271.83 232.021 272.074 239.336L272.132 241.078C279.411 245.398 286.309 249.229 288.296 248.365L288.375 248.329C289.398 247.782 288.67 245.751 287.713 244.153C287.025 243.129 286.597 241.952 286.467 240.726C286.395 238.429 288.966 237.99 292.227 239.739C295.489 241.489 298.182 244.779 298.254 247.062C298.279 247.482 298.195 247.901 298.011 248.279C297.827 248.658 297.548 248.982 297.202 249.222C296.302 249.848 295.676 251.202 296.9 252.958C298.707 255.572 305.302 259.042 312.942 263.038C313.662 263.427 314.432 263.816 315.202 264.212C315.13 262.635 315.058 261.116 314.972 259.633C314.655 253.671 314.425 249.373 316.146 248.782C317.586 248.286 319.803 250.15 321.258 251.893C322.018 252.869 322.959 253.691 324.03 254.312C324.407 254.567 324.844 254.72 325.297 254.758C325.751 254.796 326.207 254.717 326.622 254.528C327.428 254.182 327.91 253.16 327.86 251.72Z" fill="white"/>
<path d="M266.408 227.557C265.321 226.038 265.422 225.836 266.005 225.066C266.448 224.448 267.032 223.946 267.708 223.599C268.384 223.252 269.133 223.071 269.893 223.071C271.232 223.114 272.578 223.071 273.262 223.438C273.946 223.806 273.37 225.246 271.628 225.598C268.892 226.21 268.906 226.952 268.906 226.952C270.073 226.685 271.253 226.479 272.442 226.333C273.795 226.427 275.139 226.632 276.459 226.945C277.618 227.125 277.849 228.615 275.89 229.105L278.007 229.443C279.483 229.681 279.987 230.473 278.828 231.387C278.447 231.7 277.974 231.877 277.482 231.891C277.482 231.891 279.066 231.891 279.094 232.417C279.188 233.922 278.216 234.318 275.026 235.239C273.825 235.505 272.762 236.202 272.038 237.198L272.11 239.199C272.11 239.199 270.735 238.177 269.648 237.428C268.849 236.874 268.165 236.254 268.525 235.009C268.525 235.009 266.79 235.009 266.682 233.965C266.66 233.175 266.804 232.39 267.106 231.661C266.794 231.484 266.538 231.223 266.369 230.907C266.199 230.591 266.123 230.233 266.149 229.875C266.141 229.194 266.362 228.53 266.775 227.989L266.408 227.557Z" fill="#FFA8A7"/>
<path d="M275.89 229.162C275.257 229.034 274.614 228.964 273.968 228.954C273.32 229.053 272.691 229.252 272.103 229.544C270.937 230.049 269.814 230.652 268.748 231.344C269.982 231.019 271.186 230.59 272.348 230.062C272.891 229.788 273.457 229.562 274.04 229.386C274.594 229.292 275.264 229.285 275.89 229.162Z" fill="#F28F8F"/>
<path d="M277.481 231.949C276.806 231.759 276.094 231.737 275.408 231.884C274.728 232.033 274.063 232.242 273.421 232.51C272.158 233.032 270.952 233.681 269.821 234.447C271.125 234.036 272.406 233.556 273.658 233.007C274.857 232.424 276.153 232.065 277.481 231.949Z" fill="#F28F8F"/>
<path d="M395.468 163.016C391.212 164.745 387.564 167.697 384.987 171.5C382.409 175.303 381.018 179.784 380.988 184.378C380.958 188.972 382.292 193.471 384.82 197.307C387.348 201.142 390.957 204.142 395.19 205.926C399.423 207.71 404.09 208.198 408.601 207.329C413.112 206.46 417.264 204.272 420.531 201.043C423.798 197.813 426.034 193.687 426.955 189.187C427.877 184.686 427.443 180.014 425.708 175.76C423.378 170.068 418.888 165.531 413.22 163.142C407.552 160.753 401.169 160.708 395.468 163.016ZM396.253 164.953C400.124 163.377 404.375 162.985 408.469 163.826C412.563 164.666 416.316 166.702 419.253 169.675C422.19 172.649 424.18 176.427 424.97 180.531C425.76 184.635 425.315 188.881 423.692 192.733C422.069 196.584 419.34 199.868 415.851 202.168C412.362 204.469 408.269 205.683 404.089 205.657C399.91 205.632 395.832 204.367 392.371 202.024C388.91 199.681 386.222 196.364 384.646 192.493C382.537 187.301 382.575 181.485 384.751 176.321C386.927 171.158 391.064 167.069 396.253 164.953Z" fill="#455A64"/>
<path d="M396.253 164.953C392.382 166.529 389.065 169.218 386.722 172.679C384.379 176.14 383.116 180.219 383.091 184.398C383.066 188.578 384.281 192.671 386.582 196.16C388.884 199.649 392.168 202.377 396.02 204C399.872 205.622 404.118 206.066 408.222 205.274C412.327 204.483 416.104 202.493 419.077 199.555C422.049 196.617 424.084 192.863 424.924 188.769C425.763 184.674 425.37 180.423 423.793 176.552C421.674 171.366 417.584 167.232 412.421 165.057C407.258 162.883 401.444 162.845 396.253 164.953Z" fill="white"/>
<path d="M377.266 196.856L385.496 196.719L382.306 188.878L376.316 194.53C376.118 194.717 375.982 194.959 375.924 195.225C375.866 195.491 375.891 195.768 375.993 196.019C376.096 196.271 376.273 196.486 376.5 196.635C376.727 196.784 376.995 196.861 377.266 196.856Z" fill="#455A64"/>
<path d="M407.398 193.472H401.041C400.978 193.473 400.916 193.461 400.858 193.438C400.8 193.414 400.747 193.379 400.703 193.335C400.658 193.291 400.623 193.238 400.6 193.18C400.576 193.122 400.565 193.059 400.566 192.997C400.565 192.934 400.576 192.871 400.6 192.813C400.623 192.754 400.658 192.701 400.702 192.656C400.746 192.611 400.799 192.576 400.857 192.551C400.915 192.527 400.978 192.514 401.041 192.514H407.398C407.461 192.514 407.524 192.527 407.582 192.551C407.64 192.576 407.693 192.611 407.737 192.656C407.781 192.701 407.816 192.754 407.84 192.813C407.863 192.871 407.875 192.934 407.874 192.997C407.875 193.059 407.863 193.122 407.839 193.18C407.816 193.238 407.781 193.291 407.737 193.335C407.692 193.379 407.639 193.414 407.581 193.438C407.523 193.461 407.461 193.473 407.398 193.472Z" fill="#455A64"/>
<path d="M404.223 198.44C403.253 198.44 402.323 198.055 401.637 197.369C400.951 196.683 400.566 195.752 400.566 194.782C400.565 194.72 400.576 194.657 400.6 194.599C400.623 194.541 400.658 194.489 400.703 194.444C400.747 194.4 400.8 194.365 400.858 194.341C400.916 194.318 400.978 194.306 401.041 194.307H407.398C407.461 194.306 407.523 194.318 407.581 194.341C407.639 194.365 407.692 194.4 407.737 194.444C407.781 194.489 407.816 194.541 407.839 194.599C407.863 194.657 407.875 194.72 407.874 194.782C407.874 195.751 407.489 196.68 406.805 197.366C406.12 198.052 405.192 198.438 404.223 198.44Z" fill="#455A64"/>
<path d="M411.013 173.334C410.049 172.41 408.907 171.694 407.657 171.228C406.406 170.763 405.073 170.558 403.741 170.626C401.255 170.778 398.916 171.855 397.184 173.644C395.452 175.434 394.452 177.807 394.381 180.296C394.353 182.035 394.785 183.751 395.635 185.268C396.485 186.786 397.722 188.051 399.219 188.936C399.615 189.163 399.945 189.49 400.175 189.884C400.405 190.278 400.527 190.726 400.53 191.182C400.528 191.239 400.537 191.296 400.558 191.348C400.578 191.401 400.609 191.449 400.649 191.49C400.689 191.53 400.736 191.562 400.789 191.583C400.841 191.605 400.898 191.615 400.954 191.614H407.485C407.599 191.614 407.709 191.569 407.79 191.488C407.871 191.407 407.917 191.297 407.917 191.182C407.921 190.729 408.043 190.285 408.27 189.892C408.497 189.5 408.822 189.173 409.213 188.943C410.693 188.071 411.92 186.828 412.774 185.337C413.627 183.846 414.078 182.158 414.08 180.44C414.08 179.109 413.808 177.792 413.281 176.57C412.753 175.348 411.981 174.246 411.013 173.334Z" fill="#344CA3"/>
<g opacity="0.35">
<path opacity="0.35" d="M411.013 173.334C410.049 172.41 408.907 171.694 407.657 171.228C406.406 170.763 405.073 170.558 403.741 170.626C401.255 170.778 398.916 171.855 397.184 173.644C395.452 175.434 394.452 177.807 394.381 180.296C394.353 182.035 394.785 183.751 395.635 185.268C396.485 186.786 397.722 188.051 399.219 188.936C399.615 189.163 399.945 189.49 400.175 189.884C400.405 190.278 400.527 190.726 400.53 191.182C400.528 191.239 400.537 191.296 400.558 191.348C400.578 191.401 400.609 191.449 400.649 191.49C400.689 191.53 400.736 191.562 400.789 191.583C400.841 191.605 400.898 191.615 400.954 191.614H407.485C407.599 191.614 407.709 191.569 407.79 191.488C407.871 191.407 407.917 191.297 407.917 191.182C407.921 190.729 408.043 190.285 408.27 189.892C408.497 189.5 408.822 189.173 409.213 188.943C410.693 188.071 411.92 186.828 412.774 185.337C413.627 183.846 414.078 182.158 414.08 180.44C414.08 179.109 413.808 177.792 413.281 176.57C412.753 175.348 411.981 174.246 411.013 173.334Z" fill="white"/>
</g>
<path d="M409.666 182.478C409.603 182.277 409.476 182.103 409.304 181.982C409.133 181.861 408.926 181.8 408.716 181.808C408.357 181.852 408.013 181.977 407.71 182.174C407.406 182.372 407.152 182.635 406.966 182.946L406.894 183.046H406.772C406.253 182.867 405.766 182.605 405.332 182.269C405.089 182.088 404.865 181.883 404.662 181.657L404.562 181.563L404.641 181.441C404.924 181.107 405.128 180.713 405.237 180.289C405.345 179.865 405.356 179.422 405.267 178.993C405.192 178.778 405.053 178.593 404.868 178.461C404.682 178.33 404.461 178.259 404.234 178.259C404.007 178.259 403.786 178.33 403.6 178.461C403.415 178.593 403.276 178.778 403.201 178.993C403.117 179.422 403.129 179.864 403.237 180.288C403.346 180.711 403.547 181.105 403.827 181.441L403.906 181.563L403.806 181.657C403.603 181.883 403.379 182.088 403.136 182.269C402.702 182.605 402.215 182.867 401.696 183.046H401.574L401.502 182.946C401.316 182.635 401.062 182.372 400.758 182.174C400.455 181.977 400.111 181.852 399.752 181.808C399.542 181.8 399.335 181.861 399.164 181.982C398.992 182.103 398.865 182.277 398.802 182.478C398.746 182.646 398.751 182.827 398.814 182.993C398.876 183.158 398.994 183.296 399.147 183.385C399.541 183.624 399.998 183.739 400.458 183.716C400.713 183.715 400.969 183.693 401.221 183.651H401.343L401.401 183.766C401.622 184.173 401.805 184.6 401.948 185.041C402.44 186.875 402.627 188.777 402.502 190.671C402.502 190.995 402.502 191.312 402.502 191.622H403.014V190.628C403.141 188.689 402.946 186.743 402.438 184.868C402.305 184.458 402.142 184.058 401.948 183.673L401.862 183.5L402.049 183.428C402.565 183.239 403.05 182.974 403.489 182.643C403.725 182.461 403.948 182.264 404.158 182.053L404.281 181.923L404.41 182.053C404.62 182.264 404.844 182.462 405.08 182.643C405.518 182.976 406.003 183.24 406.52 183.428L406.707 183.5L406.621 183.673C406.427 184.058 406.264 184.458 406.131 184.868C405.623 186.743 405.428 188.689 405.555 190.628C405.555 190.952 405.555 191.269 405.555 191.586H406.059C406.059 191.276 406.059 190.959 406.059 190.606C405.935 188.721 406.123 186.829 406.614 185.005C406.756 184.564 406.94 184.137 407.161 183.73L407.218 183.615H407.341C407.593 183.658 407.848 183.679 408.104 183.68C408.564 183.703 409.021 183.588 409.414 183.349C409.543 183.249 409.637 183.111 409.682 182.954C409.727 182.798 409.722 182.631 409.666 182.478ZM400.674 183.198H400.45C400.087 183.218 399.725 183.135 399.406 182.96C399.348 182.927 399.302 182.877 399.274 182.816C399.245 182.755 399.236 182.687 399.248 182.622C399.279 182.522 399.343 182.435 399.429 182.376C399.515 182.318 399.619 182.29 399.723 182.298C400.144 182.353 400.526 182.57 400.789 182.902L401.041 183.169L400.674 183.198ZM404.216 181.11L404.072 180.865C403.888 180.615 403.757 180.331 403.686 180.029C403.616 179.727 403.607 179.413 403.662 179.108C403.696 178.99 403.77 178.888 403.871 178.819C403.972 178.749 404.094 178.717 404.216 178.726C404.339 178.716 404.462 178.748 404.564 178.818C404.666 178.887 404.742 178.99 404.778 179.108C404.832 179.413 404.823 179.727 404.753 180.029C404.682 180.331 404.551 180.615 404.367 180.865L404.216 181.11ZM409.04 182.974C408.718 183.15 408.354 183.232 407.989 183.212H407.773H407.406L407.658 182.946C407.92 182.613 408.303 182.396 408.723 182.341C408.827 182.334 408.93 182.363 409.016 182.421C409.103 182.48 409.167 182.566 409.198 182.665C409.249 182.823 409.083 182.931 409.04 182.974Z" fill="#FAFAFA"/>
</svg>
