<svg width="28" height="28" viewBox="0 0 28 28" fill="none" xmlns="http://www.w3.org/2000/svg">
<path d="M15.887 12.1143C15.3867 11.6138 14.7083 11.333 14.001 11.333C13.2937 11.333 12.6152 11.6138 12.1152 12.1143C11.615 12.6143 11.334 13.2925 11.334 14C11.334 14.7075 11.615 15.3857 12.1152 15.8857C12.6152 16.3862 13.2937 16.667 14.001 16.667C14.397 16.667 14.7839 16.5791 15.1357 16.4136C15.4121 16.2837 15.6667 16.106 15.887 15.8857C16.387 15.3857 16.668 14.7075 16.668 14C16.668 13.5249 16.5413 13.063 16.3066 12.6592C16.1919 12.4619 16.0513 12.2783 15.887 12.1143Z" fill="#E1E1FE"/>
<path fill-rule="evenodd" clip-rule="evenodd" d="M14.001 7.44189H13.283C11.792 7.44092 11.5061 7.45117 10.7681 7.48486C9.98804 7.521 9.56494 7.65088 9.28296 7.76123C8.90894 7.90576 8.64307 8.0791 8.36304 8.35889C8.08301 8.63916 7.90894 8.90576 7.76392 9.27881C7.65405 9.56104 7.52393 9.98486 7.48804 10.7651C7.44995 11.6079 7.44189 11.8599 7.44189 13.9961C7.44189 16.1328 7.44995 16.3862 7.48804 17.229C7.50488 17.6074 7.54443 17.9019 7.59302 18.1372C7.64478 18.3867 7.70679 18.5693 7.76294 18.7139C7.8916 19.0615 8.09668 19.376 8.36304 19.6338C8.50024 19.7749 8.65332 19.8989 8.81885 20.0034C8.96484 20.0952 9.12036 20.1719 9.28296 20.2319C9.56494 20.3418 9.98804 20.4722 10.7681 20.5078C11.2012 20.5273 11.4788 20.5396 11.936 20.5464C12.3689 20.5532 12.9626 20.5552 14.001 20.5552C16.137 20.5552 16.3899 20.5459 17.2329 20.5078C17.5793 20.4922 17.8555 20.4575 18.0801 20.4146C18.3618 20.3608 18.5623 20.293 18.718 20.2319C18.9448 20.144 19.1318 20.0459 19.3064 19.9199C19.4197 19.8379 19.5278 19.7441 19.6379 19.6338C19.9041 19.3765 20.1086 19.0625 20.2371 18.7148C20.3459 18.4331 20.4771 18.0098 20.512 17.23C20.551 16.3872 20.5591 16.1328 20.5591 13.998C20.5591 11.8628 20.551 11.6099 20.512 10.7671C20.4771 9.98682 20.3469 9.56299 20.2371 9.28223C20.092 8.9082 19.9189 8.64209 19.6389 8.36182C19.3589 8.08203 19.092 7.9082 18.719 7.76318C18.437 7.65381 18.0129 7.52295 17.2329 7.48779C16.3899 7.44922 16.137 7.44189 14.001 7.44189ZM17.9036 8.84326C18.02 8.79492 18.145 8.77002 18.271 8.77002C18.5256 8.77002 18.7698 8.87109 18.9497 9.05127C19.0107 9.1123 19.0627 9.18066 19.1047 9.25439C19.1868 9.39844 19.231 9.56201 19.231 9.72998C19.231 9.98438 19.1299 10.229 18.9497 10.4087C18.7698 10.5889 18.5256 10.6899 18.271 10.6899C18.145 10.6899 18.02 10.665 17.9036 10.6167C17.7871 10.5688 17.6814 10.498 17.5923 10.4087C17.5396 10.3564 17.4934 10.2979 17.4546 10.2349C17.4275 10.1909 17.4038 10.145 17.384 10.0972C17.3359 9.98096 17.311 9.85596 17.311 9.72998C17.311 9.604 17.3359 9.479 17.384 9.36279C17.4324 9.24609 17.5029 9.14014 17.5923 9.05127C17.6814 8.96191 17.7871 8.89111 17.9036 8.84326ZM12.4089 10.186C12.9148 9.9834 13.4561 9.8833 14.001 9.89209C15.0796 9.90869 16.1082 10.3491 16.865 11.1177C17.6218 11.8862 18.0459 12.9219 18.0459 14.0005C18.0459 15.0791 17.6218 16.1147 16.865 16.8833C16.1082 17.6519 15.0796 18.0923 14.001 18.1089C13.4561 18.1177 12.9148 18.0176 12.4089 17.8149C12.1453 17.7095 11.8938 17.5767 11.6587 17.4199C11.4426 17.2759 11.2402 17.1118 11.0542 16.9287C10.6658 16.5464 10.3574 16.0903 10.1467 15.5879C9.93628 15.085 9.82788 14.5454 9.82788 14.0005C9.82788 13.4556 9.93628 12.916 10.1467 12.4131C10.2266 12.2227 10.3203 12.0391 10.4272 11.8638C10.6025 11.5757 10.813 11.3096 11.0542 11.0723C11.4426 10.6899 11.9031 10.3887 12.4089 10.186Z" fill="#E1E1FE"/>
<path fill-rule="evenodd" clip-rule="evenodd" d="M14 28C21.7319 28 28 21.7319 28 14C28 6.26807 21.7319 0 14 0C6.26807 0 0 6.26807 0 14C0 21.7319 6.26807 28 14 28ZM12.0234 6.00732C12.4551 6.00195 13.0432 6 14 6C15.2556 6 15.8765 6.00342 16.3418 6.01367C16.6809 6.021 16.9373 6.03174 17.2971 6.04785C18.1479 6.08691 18.73 6.22217 19.24 6.41992C19.5532 6.5376 19.8491 6.69482 20.1211 6.88672C20.3125 7.02197 20.4919 7.17432 20.657 7.34277C21.064 7.74268 21.3789 8.22607 21.5801 8.75977C21.7771 9.26807 21.9121 9.8501 21.9519 10.7012C21.99 11.5552 22 11.8271 22 14C22 15.7075 21.9939 16.2412 21.9727 16.8052L21.9519 17.2979C21.9121 18.1499 21.7771 18.731 21.5801 19.2402C21.375 19.7661 21.1021 20.2119 20.657 20.6572C20.2578 21.064 19.7747 21.3789 19.241 21.5801C19.0559 21.6519 18.8611 21.7153 18.6472 21.769C18.2727 21.8633 17.8396 21.9268 17.2981 21.9521C16.4441 21.9902 16.1731 22 14 22C11.8269 22 11.5549 21.9902 10.7009 21.9521C9.84912 21.9131 9.26904 21.7778 8.75903 21.5801C8.23291 21.376 7.78711 21.1021 7.34302 20.6572C6.89795 20.2119 6.625 19.7661 6.41992 19.2402C6.22192 18.731 6.08789 18.1499 6.0481 17.2979C6.02197 16.7144 6.00903 16.4028 6.00342 15.5688C6.00098 15.1836 6 14.687 6 14.001C6 11.8271 6.01001 11.5552 6.0481 10.7002C6.08691 9.8501 6.22192 9.26807 6.41992 8.75977C6.62109 8.22607 6.93604 7.74268 7.34302 7.34277C7.74243 6.93604 8.22607 6.62061 8.76001 6.41992C9.26904 6.22217 9.8501 6.08789 10.7029 6.04785C11.1799 6.02637 11.4756 6.01416 12.0234 6.00732Z" fill="#E1E1FE"/>
</svg>
