<svg width="28" height="28" viewBox="0 0 28 28" fill="none" xmlns="http://www.w3.org/2000/svg">
<path d="M14 0.666504C6.63607 0.666504 0.666626 6.63595 0.666626 13.9998C0.666626 21.3637 6.63607 27.3332 14 27.3332C21.3638 27.3332 27.3333 21.3637 27.3333 13.9998C27.3333 6.63595 21.3638 0.666504 14 0.666504ZM10.7361 19.5262H8.03607V10.8373H10.7361V19.5262ZM9.3694 9.77067C8.51663 9.77067 7.96524 9.1665 7.96524 8.41928C7.96524 7.65678 8.53329 7.07067 9.40413 7.07067C10.275 7.07067 10.8083 7.65678 10.825 8.41928C10.825 9.1665 10.275 9.77067 9.3694 9.77067ZM20.5972 19.5262H17.8972V14.7109C17.8972 13.5901 17.5055 12.829 16.5291 12.829C15.7833 12.829 15.3402 13.3443 15.1444 13.8401C15.0722 14.0165 15.0541 14.2665 15.0541 14.5151V19.5248H12.3527V13.6082C12.3527 12.5234 12.318 11.6165 12.2819 10.8359H14.6277L14.7513 12.0429H14.8055C15.1611 11.4762 16.0319 10.6401 17.4888 10.6401C19.2652 10.6401 20.5972 11.8304 20.5972 14.3887V19.5262Z" fill="#E1E1FE"/>
</svg>
