<svg width="33" height="32" viewBox="0 0 33 32" fill="none" xmlns="http://www.w3.org/2000/svg">
    <path d="M16.667 2.667C9.303 2.667 3.333 8.637 3.333 16c0 7.364 5.97 13.333 13.334 13.333S30 23.363 30 16c0-7.364-5.97-13.333-13.333-13.333zm-3.264 18.86h-2.7v-8.69h2.7v8.69zm-1.367-9.756c-.853 0-1.404-.604-1.404-1.352 0-.762.568-1.348 1.439-1.348.87 0 1.404.586 1.42 1.348 0 .748-.55 1.352-1.455 1.352zm11.228 9.755h-2.7v-4.815c0-1.12-.392-1.882-1.368-1.882-.746 0-1.19.515-1.385 1.011-.072.177-.09.427-.09.675v5.01h-2.702v-5.917c0-1.084-.034-1.991-.07-2.772h2.345l.124 1.207h.054c.356-.567 1.227-1.403 2.684-1.403 1.776 0 3.108 1.19 3.108 3.749v5.137z" fill="#9CA3AF"/>
</svg>
