<svg width="27" height="27" viewBox="0 0 27 27" fill="none" xmlns="http://www.w3.org/2000/svg">
<path fill-rule="evenodd" clip-rule="evenodd" d="M26.67 13.335C26.67 20.6993 20.6993 26.67 13.335 26.67C5.97075 26.67 0 20.6993 0 13.335C0 5.97075 5.97075 0 13.335 0C20.6993 0 26.67 5.97075 26.67 13.335ZM13.8128 9.84456C12.516 10.3835 9.92346 11.5003 6.03631 13.1939C5.40512 13.445 5.07397 13.6906 5.04396 13.9306C4.99285 14.3373 5.5018 14.4974 6.193 14.7141C6.28745 14.7441 6.38524 14.7741 6.48526 14.8074C7.16645 15.0285 8.08212 15.2875 8.55774 15.2975C8.99001 15.3064 9.4723 15.1286 10.0046 14.7641C13.6361 12.3115 15.5108 11.0725 15.6286 11.0458C15.712 11.0269 15.8275 11.0025 15.9053 11.0725C15.9831 11.1414 15.9753 11.2725 15.9676 11.3081C15.9164 11.5226 13.9229 13.3772 12.8894 14.3373C12.5671 14.6363 12.3393 14.8485 12.2926 14.8974C12.1882 15.0052 12.0815 15.1086 11.9793 15.2075C11.3459 15.8164 10.8725 16.2743 12.0059 17.021C12.5505 17.38 12.9861 17.6767 13.4206 17.9722C13.8951 18.2956 14.3685 18.6179 14.9819 19.0202C15.1374 19.1224 15.2864 19.228 15.4319 19.3313C15.9842 19.7258 16.4809 20.0792 17.0944 20.0236C17.45 19.9903 17.8189 19.6558 18.0056 18.6568C18.4467 16.2943 19.3157 11.1781 19.5169 9.06891C19.5291 8.89379 19.5217 8.71786 19.4947 8.5444C19.4785 8.40431 19.4103 8.2754 19.3035 8.18324C19.1446 8.05323 18.8979 8.02545 18.7868 8.02767C18.2856 8.03656 17.5166 8.30437 13.8128 9.84456Z" fill="#E1E1FE"/>
</svg>
