<svg width="33" height="32" viewBox="0 0 33 32" fill="none" xmlns="http://www.w3.org/2000/svg">
    <path d="M16.111 2.667C8.747 2.667 2.778 8.637 2.778 16c0 7.364 5.97 13.333 13.333 13.333 7.364 0 13.333-5.97 13.333-13.333 0-7.364-5.969-13.333-13.333-13.333zm5.424 10.922c.005.114.007.228.007.339 0 3.472-2.64 7.473-7.471 7.473a7.41 7.41 0 0 1-4.025-1.18c.204.025.414.035.626.035a5.26 5.26 0 0 0 3.261-1.124 2.632 2.632 0 0 1-2.453-1.822c.394.075.799.059 1.185-.046a2.627 2.627 0 0 1-2.107-2.575v-.032c.354.196.76.315 1.19.33a2.625 2.625 0 0 1-.812-3.51 7.467 7.467 0 0 0 5.413 2.747 2.627 2.627 0 0 1 4.475-2.396 5.27 5.27 0 0 0 1.666-.638 2.639 2.639 0 0 1-1.154 1.454 5.276 5.276 0 0 0 1.508-.415 5.323 5.323 0 0 1-1.31 1.36z" fill="#9CA3AF"/>
</svg>
