<svg width="28" height="28" viewBox="0 0 28 28" fill="none" xmlns="http://www.w3.org/2000/svg">
<path d="M13.7778 0.666504C6.4139 0.666504 0.444458 6.63595 0.444458 13.9998C0.444458 21.3637 6.4139 27.3332 13.7778 27.3332C21.1417 27.3332 27.1111 21.3637 27.1111 13.9998C27.1111 6.63595 21.1417 0.666504 13.7778 0.666504ZM19.2014 11.5887C19.207 11.7026 19.2083 11.8165 19.2083 11.9276C19.2083 15.3998 16.5681 19.4012 11.7375 19.4012C10.3101 19.4036 8.91247 18.9937 7.71251 18.2207C7.91668 18.2457 8.1264 18.2554 8.3389 18.2554C9.56946 18.2554 10.7014 17.8373 11.6 17.1318C11.0524 17.121 10.5218 16.9397 10.0821 16.6131C9.64245 16.2864 9.31564 15.8308 9.14724 15.3096C9.54051 15.3843 9.94564 15.3687 10.332 15.2637C9.73758 15.1435 9.20307 14.8215 8.81905 14.3521C8.43504 13.8828 8.22516 13.2951 8.22501 12.6887V12.6568C8.57918 12.8526 8.98474 12.9721 9.41529 12.986C8.85807 12.615 8.4636 12.0452 8.31258 11.3931C8.16155 10.7409 8.26536 10.0557 8.60279 9.47762C9.26245 10.2887 10.0851 10.9523 11.0175 11.4253C11.9498 11.8983 12.9712 12.1702 14.0153 12.2234C13.8825 11.66 13.9397 11.0685 14.1778 10.5408C14.4159 10.0132 14.8217 9.57899 15.3321 9.30576C15.8424 9.03253 16.4287 8.93556 16.9999 9.02994C17.571 9.12431 18.095 9.40473 18.4903 9.82761C19.078 9.71133 19.6417 9.49575 20.157 9.19012C19.9611 9.79864 19.551 10.3154 19.0028 10.6443C19.5234 10.5816 20.0318 10.4416 20.5111 10.229C20.159 10.7566 19.7155 11.2171 19.2014 11.5887Z" fill="#E1E1FE"/>
</svg>
