<svg width="48" height="48" viewBox="0 0 48 48" fill="none" xmlns="http://www.w3.org/2000/svg">
    <path d="M23.667 4c-11.046 0-20 8.954-20 20s8.954 20 20 20c11.045 0 20-8.954 20-20s-8.955-20-20-20zm8.135 16.383c.008.171.01.342.01.509 0 5.208-3.96 11.21-11.206 11.21a11.115 11.115 0 0 1-6.037-1.77c.306.037.62.051.94.051a7.889 7.889 0 0 0 4.891-1.685 3.947 3.947 0 0 1-3.68-2.733c.59.112 1.198.088 1.778-.07a3.942 3.942 0 0 1-3.16-3.862v-.048a3.95 3.95 0 0 0 1.785.494 3.938 3.938 0 0 1-1.219-5.262 11.2 11.2 0 0 0 8.119 4.118 3.94 3.94 0 0 1 6.712-3.593 7.91 7.91 0 0 0 2.5-.957 3.958 3.958 0 0 1-1.73 2.182 7.914 7.914 0 0 0 2.262-.623 7.987 7.987 0 0 1-1.965 2.04z" fill="#9CA3AF"/>
</svg>
